<svg width="40" height="40" viewBox="0 0 40 40" fill="none" xmlns="http://www.w3.org/2000/svg">
<path d="M33.1875 4H6.8125C5.26169 4 4 5.26169 4 6.8125V33.0625C4 34.6133 5.26169 35.875 6.8125 35.875H33.1875C34.7383 35.875 36 34.6133 36 33.0625V6.8125C36 5.26169 34.7383 4 33.1875 4ZM6.8125 5.875H33.1875C33.7044 5.875 34.125 6.29556 34.125 6.8125V11.5H5.875V6.8125C5.875 6.29556 6.29556 5.875 6.8125 5.875ZM33.1875 34H6.8125C6.29556 34 5.875 33.5794 5.875 33.0625V13.375H34.125V33.0625C34.125 33.5794 33.7044 34 33.1875 34Z" fill="white"/>
<path d="M23.1818 16.2633C22.7059 16.0594 22.1548 16.2798 21.9508 16.7557L16.3258 29.8807C16.1218 30.3566 16.3423 30.9077 16.8182 31.1117C17.2943 31.3157 17.8453 31.0951 18.0492 30.6193L23.6742 17.4943C23.8782 17.0184 23.6577 16.4673 23.1818 16.2633Z" fill="white"/>
<path d="M15.1071 19.3518C14.7836 18.9475 14.1935 18.882 13.7894 19.2054L9.10188 22.9554C8.63319 23.3303 8.63288 24.0444 9.10188 24.4196L13.7894 28.1696C14.1937 28.4931 14.7837 28.4274 15.1071 28.0232C15.4305 27.6189 15.365 27.0289 14.9606 26.7055L11.1883 23.6875L14.9606 20.6696C15.365 20.3461 15.4305 19.7562 15.1071 19.3518Z" fill="white"/>
<path d="M30.8981 22.9554L26.2106 19.2054C25.8063 18.8819 25.2163 18.9475 24.8929 19.3518C24.5695 19.7561 24.635 20.3461 25.0394 20.6695L28.8117 23.6875L25.0394 26.7054C24.635 27.0289 24.5695 27.6188 24.8929 28.0231C25.2168 28.4279 25.8069 28.4926 26.2106 28.1695L30.8981 24.4195C31.3668 24.0447 31.3671 23.3306 30.8981 22.9554Z" fill="white"/>
<path d="M8.75 9.625C9.26777 9.625 9.6875 9.20527 9.6875 8.6875C9.6875 8.16973 9.26777 7.75 8.75 7.75C8.23223 7.75 7.8125 8.16973 7.8125 8.6875C7.8125 9.20527 8.23223 9.625 8.75 9.625Z" fill="white"/>
<path d="M12.5 9.625C13.0178 9.625 13.4375 9.20527 13.4375 8.6875C13.4375 8.16973 13.0178 7.75 12.5 7.75C11.9822 7.75 11.5625 8.16973 11.5625 8.6875C11.5625 9.20527 11.9822 9.625 12.5 9.625Z" fill="white"/>
<path d="M16.25 9.625C16.7678 9.625 17.1875 9.20527 17.1875 8.6875C17.1875 8.16973 16.7678 7.75 16.25 7.75C15.7322 7.75 15.3125 8.16973 15.3125 8.6875C15.3125 9.20527 15.7322 9.625 16.25 9.625Z" fill="white"/>
<path d="M25.625 9.625H31.25C31.7677 9.625 32.1875 9.20525 32.1875 8.6875C32.1875 8.16975 31.7677 7.75 31.25 7.75H25.625C25.1073 7.75 24.6875 8.16975 24.6875 8.6875C24.6875 9.20525 25.1073 9.625 25.625 9.625Z" fill="white"/>
</svg>
