<svg width="36" height="36" viewBox="0 0 36 36" fill="none" xmlns="http://www.w3.org/2000/svg">
<path d="M18 22.2499C17.609 22.2499 17.2916 21.9326 17.2916 21.5416V16.5833C17.2916 15.8027 16.6555 15.1666 15.875 15.1666C15.0944 15.1666 14.4583 15.8027 14.4583 16.5833V21.5416C14.4583 21.9326 14.141 22.2499 13.75 22.2499C13.359 22.2499 13.0416 21.9326 13.0416 21.5416V16.5833C13.0416 15.0207 14.3124 13.7499 15.875 13.7499C17.4375 13.7499 18.7083 15.0207 18.7083 16.5833V21.5416C18.7083 21.9326 18.391 22.2499 18 22.2499Z" fill="white"/>
<path d="M18 19.4166H13.75C13.359 19.4166 13.0416 19.0992 13.0416 18.7082C13.0416 18.3172 13.359 17.9999 13.75 17.9999H18C18.391 17.9999 18.7083 18.3172 18.7083 18.7082C18.7083 19.0992 18.391 19.4166 18 19.4166Z" fill="white"/>
<path d="M22.2499 22.2499C21.8589 22.2499 21.5416 21.9326 21.5416 21.5416V14.4583C21.5416 14.0673 21.8589 13.7499 22.2499 13.7499C22.6409 13.7499 22.9583 14.0673 22.9583 14.4583V21.5416C22.9583 21.9326 22.6409 22.2499 22.2499 22.2499Z" fill="white"/>
<path d="M25.7916 29.3334H10.2083C8.25617 29.3334 6.66668 27.7439 6.66668 25.7917V10.2085C6.66668 8.2563 8.25617 6.66681 10.2083 6.66681H25.7916C27.7437 6.66681 29.3332 8.2563 29.3332 10.2085V25.7917C29.3332 27.7439 27.7437 29.3334 25.7916 29.3334ZM10.2083 8.08347C9.03675 8.08347 8.08334 9.03688 8.08334 10.2085V25.7917C8.08334 26.9633 9.03675 27.9167 10.2083 27.9167H25.7916C26.9632 27.9167 27.9166 26.9633 27.9166 25.7917V10.2085C27.9166 9.03688 26.9632 8.08347 25.7916 8.08347H10.2083Z" fill="white"/>
<path d="M11.625 8.0833C11.234 8.0833 10.9167 7.76596 10.9167 7.37497V1.70833C10.9167 1.31733 11.234 1 11.625 1C12.016 1 12.3333 1.31733 12.3333 1.70833V7.37497C12.3333 7.76596 12.016 8.0833 11.625 8.0833Z" fill="white"/>
<path d="M18 8.0833C17.609 8.0833 17.2916 7.76596 17.2916 7.37497V1.70833C17.2916 1.31733 17.609 1 18 1C18.391 1 18.7083 1.31733 18.7083 1.70833V7.37497C18.7083 7.76596 18.391 8.0833 18 8.0833Z" fill="white"/>
<path d="M24.3749 8.0833C23.9839 8.0833 23.6666 7.76596 23.6666 7.37497V1.70833C23.6666 1.31733 23.9839 1 24.3749 1C24.7659 1 25.0833 1.31733 25.0833 1.70833V7.37497C25.0833 7.76596 24.7659 8.0833 24.3749 8.0833Z" fill="white"/>
<path d="M11.625 35C11.234 35 10.9167 34.6827 10.9167 34.2917V28.625C10.9167 28.234 11.234 27.9167 11.625 27.9167C12.016 27.9167 12.3333 28.234 12.3333 28.625V34.2917C12.3333 34.6827 12.016 35 11.625 35Z" fill="white"/>
<path d="M18 35C17.609 35 17.2916 34.6827 17.2916 34.2917V28.625C17.2916 28.234 17.609 27.9167 18 27.9167C18.391 27.9167 18.7083 28.234 18.7083 28.625V34.2917C18.7083 34.6827 18.391 35 18 35Z" fill="white"/>
<path d="M24.3749 35C23.9839 35 23.6666 34.6827 23.6666 34.2917V28.625C23.6666 28.234 23.9839 27.9167 24.3749 27.9167C24.7659 27.9167 25.0833 28.234 25.0833 28.625V34.2917C25.0833 34.6827 24.7659 35 24.3749 35Z" fill="white"/>
<path d="M34.2915 12.3334H28.6249C28.2339 12.3334 27.9166 12.0161 27.9166 11.6251C27.9166 11.2341 28.2339 10.9168 28.6249 10.9168H34.2915C34.6825 10.9168 34.9999 11.2341 34.9999 11.6251C34.9999 12.0161 34.6825 12.3334 34.2915 12.3334Z" fill="white"/>
<path d="M34.2915 18.7084H28.6249C28.2339 18.7084 27.9166 18.3911 27.9166 18.0001C27.9166 17.6091 28.2339 17.2918 28.6249 17.2918H34.2915C34.6825 17.2918 34.9999 17.6091 34.9999 18.0001C34.9999 18.3911 34.6825 18.7084 34.2915 18.7084Z" fill="white"/>
<path d="M34.2915 25.0834H28.6249C28.2339 25.0834 27.9166 24.7661 27.9166 24.3751C27.9166 23.9841 28.2339 23.6667 28.6249 23.6667H34.2915C34.6825 23.6667 34.9999 23.9841 34.9999 24.3751C34.9999 24.7661 34.6825 25.0834 34.2915 25.0834Z" fill="white"/>
<path d="M7.37497 12.3334H1.70833C1.31733 12.3334 1 12.0161 1 11.6251C1 11.2341 1.31733 10.9168 1.70833 10.9168H7.37497C7.76596 10.9168 8.0833 11.2341 8.0833 11.6251C8.0833 12.0161 7.76596 12.3334 7.37497 12.3334Z" fill="white"/>
<path d="M7.37497 18.7084H1.70833C1.31733 18.7084 1 18.3911 1 18.0001C1 17.6091 1.31733 17.2918 1.70833 17.2918H7.37497C7.76596 17.2918 8.0833 17.6091 8.0833 18.0001C8.0833 18.3911 7.76596 18.7084 7.37497 18.7084Z" fill="white"/>
<path d="M7.37497 25.0834H1.70833C1.31733 25.0834 1 24.7661 1 24.3751C1 23.9841 1.31733 23.6667 1.70833 23.6667H7.37497C7.76596 23.6667 8.0833 23.9841 8.0833 24.3751C8.0833 24.7661 7.76596 25.0834 7.37497 25.0834Z" fill="white"/>
<path d="M18 22.2499C17.609 22.2499 17.2916 21.9326 17.2916 21.5416V16.5833C17.2916 15.8027 16.6555 15.1666 15.875 15.1666C15.0944 15.1666 14.4583 15.8027 14.4583 16.5833V21.5416C14.4583 21.9326 14.141 22.2499 13.75 22.2499C13.359 22.2499 13.0416 21.9326 13.0416 21.5416V16.5833C13.0416 15.0207 14.3124 13.7499 15.875 13.7499C17.4375 13.7499 18.7083 15.0207 18.7083 16.5833V21.5416C18.7083 21.9326 18.391 22.2499 18 22.2499Z" stroke="white" stroke-width="0.5"/>
<path d="M18 19.4166H13.75C13.359 19.4166 13.0416 19.0992 13.0416 18.7082C13.0416 18.3172 13.359 17.9999 13.75 17.9999H18C18.391 17.9999 18.7083 18.3172 18.7083 18.7082C18.7083 19.0992 18.391 19.4166 18 19.4166Z" stroke="white" stroke-width="0.5"/>
<path d="M22.2499 22.2499C21.8589 22.2499 21.5416 21.9326 21.5416 21.5416V14.4583C21.5416 14.0673 21.8589 13.7499 22.2499 13.7499C22.6409 13.7499 22.9583 14.0673 22.9583 14.4583V21.5416C22.9583 21.9326 22.6409 22.2499 22.2499 22.2499Z" stroke="white" stroke-width="0.5"/>
<path d="M25.7916 29.3334H10.2083C8.25617 29.3334 6.66668 27.7439 6.66668 25.7917V10.2085C6.66668 8.2563 8.25617 6.66681 10.2083 6.66681H25.7916C27.7437 6.66681 29.3332 8.2563 29.3332 10.2085V25.7917C29.3332 27.7439 27.7437 29.3334 25.7916 29.3334ZM10.2083 8.08347C9.03675 8.08347 8.08334 9.03688 8.08334 10.2085V25.7917C8.08334 26.9633 9.03675 27.9167 10.2083 27.9167H25.7916C26.9632 27.9167 27.9166 26.9633 27.9166 25.7917V10.2085C27.9166 9.03688 26.9632 8.08347 25.7916 8.08347H10.2083Z" stroke="white" stroke-width="0.5"/>
<path d="M11.625 8.0833C11.234 8.0833 10.9167 7.76596 10.9167 7.37497V1.70833C10.9167 1.31733 11.234 1 11.625 1C12.016 1 12.3333 1.31733 12.3333 1.70833V7.37497C12.3333 7.76596 12.016 8.0833 11.625 8.0833Z" stroke="white" stroke-width="0.5"/>
<path d="M18 8.0833C17.609 8.0833 17.2916 7.76596 17.2916 7.37497V1.70833C17.2916 1.31733 17.609 1 18 1C18.391 1 18.7083 1.31733 18.7083 1.70833V7.37497C18.7083 7.76596 18.391 8.0833 18 8.0833Z" stroke="white" stroke-width="0.5"/>
<path d="M24.3749 8.0833C23.9839 8.0833 23.6666 7.76596 23.6666 7.37497V1.70833C23.6666 1.31733 23.9839 1 24.3749 1C24.7659 1 25.0833 1.31733 25.0833 1.70833V7.37497C25.0833 7.76596 24.7659 8.0833 24.3749 8.0833Z" stroke="white" stroke-width="0.5"/>
<path d="M11.625 35C11.234 35 10.9167 34.6827 10.9167 34.2917V28.625C10.9167 28.234 11.234 27.9167 11.625 27.9167C12.016 27.9167 12.3333 28.234 12.3333 28.625V34.2917C12.3333 34.6827 12.016 35 11.625 35Z" stroke="white" stroke-width="0.5"/>
<path d="M18 35C17.609 35 17.2916 34.6827 17.2916 34.2917V28.625C17.2916 28.234 17.609 27.9167 18 27.9167C18.391 27.9167 18.7083 28.234 18.7083 28.625V34.2917C18.7083 34.6827 18.391 35 18 35Z" stroke="white" stroke-width="0.5"/>
<path d="M24.3749 35C23.9839 35 23.6666 34.6827 23.6666 34.2917V28.625C23.6666 28.234 23.9839 27.9167 24.3749 27.9167C24.7659 27.9167 25.0833 28.234 25.0833 28.625V34.2917C25.0833 34.6827 24.7659 35 24.3749 35Z" stroke="white" stroke-width="0.5"/>
<path d="M34.2915 12.3334H28.6249C28.2339 12.3334 27.9166 12.0161 27.9166 11.6251C27.9166 11.2341 28.2339 10.9168 28.6249 10.9168H34.2915C34.6825 10.9168 34.9999 11.2341 34.9999 11.6251C34.9999 12.0161 34.6825 12.3334 34.2915 12.3334Z" stroke="white" stroke-width="0.5"/>
<path d="M34.2915 18.7084H28.6249C28.2339 18.7084 27.9166 18.3911 27.9166 18.0001C27.9166 17.6091 28.2339 17.2918 28.6249 17.2918H34.2915C34.6825 17.2918 34.9999 17.6091 34.9999 18.0001C34.9999 18.3911 34.6825 18.7084 34.2915 18.7084Z" stroke="white" stroke-width="0.5"/>
<path d="M34.2915 25.0834H28.6249C28.2339 25.0834 27.9166 24.7661 27.9166 24.3751C27.9166 23.9841 28.2339 23.6667 28.6249 23.6667H34.2915C34.6825 23.6667 34.9999 23.9841 34.9999 24.3751C34.9999 24.7661 34.6825 25.0834 34.2915 25.0834Z" stroke="white" stroke-width="0.5"/>
<path d="M7.37497 12.3334H1.70833C1.31733 12.3334 1 12.0161 1 11.6251C1 11.2341 1.31733 10.9168 1.70833 10.9168H7.37497C7.76596 10.9168 8.0833 11.2341 8.0833 11.6251C8.0833 12.0161 7.76596 12.3334 7.37497 12.3334Z" stroke="white" stroke-width="0.5"/>
<path d="M7.37497 18.7084H1.70833C1.31733 18.7084 1 18.3911 1 18.0001C1 17.6091 1.31733 17.2918 1.70833 17.2918H7.37497C7.76596 17.2918 8.0833 17.6091 8.0833 18.0001C8.0833 18.3911 7.76596 18.7084 7.37497 18.7084Z" stroke="white" stroke-width="0.5"/>
<path d="M7.37497 25.0834H1.70833C1.31733 25.0834 1 24.7661 1 24.3751C1 23.9841 1.31733 23.6667 1.70833 23.6667H7.37497C7.76596 23.6667 8.0833 23.9841 8.0833 24.3751C8.0833 24.7661 7.76596 25.0834 7.37497 25.0834Z" stroke="white" stroke-width="0.5"/>
</svg>
