<svg width="34" height="34" viewBox="0 0 34 34" fill="none" xmlns="http://www.w3.org/2000/svg">
<g id="data-analysis 1">
<path id="Vector" d="M32.9697 29.9812H1.54544V3.50246C1.54544 3.19337 1.33938 2.9873 1.03029 2.9873C0.721197 2.9873 0.515137 3.19337 0.515137 3.50246V30.4964C0.515137 30.8055 0.721197 31.0116 1.03029 31.0116H32.9697C33.2788 31.0116 33.4848 30.8055 33.4848 30.4964C33.4848 30.1873 33.2788 29.9812 32.9697 29.9812Z" fill="white" stroke="white" stroke-width="0.8"/>
<path id="Vector_2" d="M19.5245 18.494L16.4851 15.4546C17.0517 14.5788 16.8972 13.4455 16.176 12.7758C15.3002 11.9001 13.9093 11.9001 13.0851 12.7758C12.3638 13.497 12.2093 14.5788 12.776 15.4546L6.69718 21.4819C5.82142 20.9152 4.68809 21.0698 3.96688 21.791C3.09112 22.6667 3.09112 24.0576 3.96688 24.9334C4.84263 25.8092 6.23354 25.8092 7.1093 24.9334C7.83051 24.2122 7.93354 23.0788 7.41839 22.2546L13.4457 16.2273C14.1669 16.6395 15.0426 16.6395 15.7123 16.2273L18.7517 19.2667C18.1851 20.1425 18.3396 21.2758 19.0608 21.997C19.9366 22.8728 21.3275 22.8728 22.1517 21.997C22.8729 21.2758 22.976 20.1425 22.4608 19.3182L29.1578 12.6213C30.0335 13.1879 31.1669 12.9819 31.8366 12.3122C32.7123 11.4364 32.7123 10.0455 31.8366 9.22127C30.9608 8.34551 29.5699 8.34551 28.7457 9.22127C28.0245 9.94248 27.9214 11.0758 28.4366 11.9001L21.7396 18.597C21.0699 18.0304 20.2457 18.0304 19.5245 18.494ZM6.38809 24.1607C5.92445 24.6243 5.15173 24.6243 4.7396 24.1607C4.27597 23.697 4.27597 22.9758 4.7396 22.5122C5.20324 22.0485 5.92445 22.0485 6.38809 22.5122C6.85173 22.9758 6.85173 23.697 6.38809 24.1607ZM13.7548 15.1455C13.2911 14.6819 13.2911 13.9607 13.7548 13.497C14.2184 13.0334 14.9396 13.0334 15.4032 13.497C15.8669 13.9607 15.8669 14.6819 15.4032 15.1455C14.9911 15.5576 14.2184 15.5576 13.7548 15.1455ZM21.482 21.1728C21.0184 21.6364 20.2457 21.6364 19.8335 21.1728C19.3699 20.7091 19.3699 19.9879 19.8335 19.5243C20.2972 19.0607 21.0184 19.0607 21.482 19.5243C21.9457 19.9879 21.9457 20.7091 21.482 21.1728ZM29.5184 9.83945C29.982 9.37582 30.7032 9.37582 31.1669 9.83945C31.6305 10.3031 31.6305 11.0243 31.1669 11.4879C30.7032 11.9516 29.982 11.9516 29.5184 11.4879C29.0548 11.0243 29.0548 10.2516 29.5184 9.83945Z" fill="white" stroke="white" stroke-width="0.8"/>
</g>
</svg>
