<svg width="40" height="40" viewBox="0 0 40 40" fill="none" xmlns="http://www.w3.org/2000/svg">
<g id="technical-support 1">
<path id="Vector" d="M37.6924 16.1543C37.267 16.1543 36.9232 16.4981 36.9232 16.9235V30.0005C36.9232 30.4251 36.5786 30.7697 36.154 30.7697H3.84627C3.42165 30.7697 3.07704 30.4251 3.07704 30.0005V8.46199C3.07704 8.03737 3.42165 7.69276 3.84627 7.69276H15.3847C15.8101 7.69276 16.154 7.34891 16.154 6.92353C16.154 6.49814 15.8101 6.1543 15.3847 6.1543H3.84627C2.57396 6.1543 1.53857 7.18968 1.53857 8.46199V30.0005C1.53857 31.2728 2.57396 32.3081 3.84627 32.3081H36.154C37.4263 32.3081 38.4617 31.2728 38.4617 30.0005V16.9235C38.4617 16.4981 38.1178 16.1543 37.6924 16.1543Z" fill="white" stroke="white" stroke-width="0.4"/>
<path id="Vector_2" d="M26.1541 36.9226H24.6156V34.6149C24.6156 34.1895 24.2718 33.8457 23.8464 33.8457C23.421 33.8457 23.0771 34.1895 23.0771 34.6149V36.9226H16.9233V34.6149C16.9233 34.1895 16.5795 33.8457 16.1541 33.8457C15.7287 33.8457 15.3848 34.1895 15.3848 34.6149V36.9226H13.8464C13.421 36.9226 13.0771 37.2665 13.0771 37.6919C13.0771 38.1172 13.421 38.4611 13.8464 38.4611H26.1541C26.5795 38.4611 26.9233 38.1172 26.9233 37.6919C26.9233 37.2665 26.5795 36.9226 26.1541 36.9226Z" fill="white" stroke="white" stroke-width="0.4"/>
<path id="Vector_3" d="M18.1867 14.0268L19.4144 14.2721C19.4944 14.4914 19.5829 14.706 19.6805 14.9152L18.9867 15.956C18.5721 16.5775 18.6544 17.4121 19.1829 17.9398L20.5229 19.2791C21.0498 19.8068 21.8829 19.8914 22.5059 19.476L23.5521 18.7791C23.7629 18.8783 23.9759 18.9675 24.189 19.0468L24.4344 20.276C24.5805 21.0083 25.229 21.5391 25.9759 21.5391H27.8705C28.6175 21.5391 29.2652 21.0083 29.4121 20.2752L29.6575 19.0468C29.8767 18.9668 30.0913 18.8783 30.3005 18.7814L31.3421 19.476C31.9629 19.8883 32.7975 19.806 33.3244 19.2783L34.6644 17.9391C35.1929 17.4106 35.2752 16.5768 34.8605 15.9552L34.1636 14.9098C34.2636 14.6991 34.3529 14.4852 34.4321 14.2729L35.6605 14.0268C36.3921 13.8806 36.9229 13.2329 36.9229 12.486V10.5906C36.9229 9.84445 36.3921 9.19675 35.659 9.04983L34.4313 8.80445C34.3513 8.58445 34.2629 8.3706 34.1659 8.16137L34.859 7.1206C35.2736 6.49906 35.1913 5.66445 34.6629 5.13675L33.3229 3.79752C32.7959 3.2706 31.9629 3.18522 31.3398 3.6006L30.2936 4.29752C30.0829 4.19829 29.8698 4.10906 29.6567 4.02983L29.4113 2.8006C29.2652 2.06983 28.6167 1.53906 27.8698 1.53906H25.9752C25.2282 1.53906 24.5805 2.06983 24.4336 2.80214L24.1882 4.0306C23.9736 4.10983 23.759 4.19906 23.549 4.29829L22.5044 3.6006C21.8829 3.18752 21.0482 3.2706 20.5221 3.79829L19.1821 5.13752C18.6536 5.66599 18.5713 6.49983 18.9859 7.12137L19.6836 8.16676C19.5852 8.37676 19.4959 8.58983 19.4175 8.80368L18.1859 9.04983C17.4536 9.19675 16.9229 9.84522 16.9229 10.5914V12.4868C16.9229 13.2321 17.4536 13.8806 18.1867 14.0268ZM18.4882 10.5591L20.1567 10.2252C20.4352 10.1698 20.6613 9.96368 20.7429 9.69137C20.8652 9.28137 21.0359 8.87368 21.2482 8.47829C21.3836 8.22829 21.369 7.92291 21.2113 7.68675L20.269 6.22599L21.6513 4.88214L23.0682 5.82752C23.3052 5.98599 23.6105 6.00137 23.8613 5.86368C24.2552 5.6506 24.6636 5.47983 25.0744 5.35752C25.3475 5.27676 25.5536 5.05137 25.609 4.77137L25.9759 3.07752L27.9036 3.10368L28.2359 4.76983C28.2913 5.04906 28.4975 5.27445 28.7698 5.35599C29.1721 5.47599 29.5813 5.64752 29.9829 5.86368C30.2329 5.99906 30.539 5.98445 30.7744 5.82675L32.2352 4.88522L33.579 6.26752L32.6375 7.67983C32.479 7.91752 32.4652 8.22214 32.6013 8.47291C32.8059 8.8506 32.9752 9.2606 33.1036 9.69137C33.1852 9.96368 33.4105 10.1691 33.6898 10.2244L35.3559 10.5583L35.3844 10.5914L35.3575 12.5191L33.6921 12.8521C33.4129 12.9075 33.1875 13.1137 33.1059 13.386C32.9859 13.7875 32.8152 14.196 32.5975 14.5983C32.4621 14.8491 32.4767 15.1544 32.6344 15.3906L33.5767 16.8514L32.1944 18.1952L30.7821 17.2529C30.5459 17.0952 30.2405 17.0814 29.9898 17.216C29.6105 17.4214 29.2005 17.5906 28.7705 17.7191C28.4982 17.8006 28.2929 18.026 28.2375 18.3052L27.8698 20.0006L25.9421 19.9737L25.609 18.3075C25.5536 18.0283 25.3475 17.8029 25.0752 17.7214C24.6729 17.6014 24.2636 17.4298 23.8621 17.2137C23.7482 17.1521 23.6221 17.1214 23.4967 17.1214C23.3475 17.1214 23.1982 17.1652 23.0698 17.2506L21.609 18.1921L20.2652 16.8098L21.2075 15.3975C21.3659 15.1598 21.3798 14.8552 21.2436 14.6044C21.0375 14.2244 20.869 13.8152 20.7405 13.386C20.659 13.1137 20.4336 12.9083 20.1544 12.8529L18.4613 12.486L18.4882 10.5591Z" fill="white" stroke="white" stroke-width="0.4"/>
<path id="Vector_4" d="M26.9233 15.0391C28.8536 15.0391 30.4233 13.4693 30.4233 11.5391C30.4233 11.3034 30.4 11.0677 30.3539 10.8396C30.2903 10.5241 29.9829 10.3199 29.6662 10.3835C29.3506 10.4476 29.1458 10.7556 29.21 11.0712C29.2415 11.2235 29.2567 11.381 29.2567 11.5391C29.2567 12.8259 28.2102 13.8724 26.9233 13.8724C25.6365 13.8724 24.59 12.8259 24.59 11.5391C24.59 10.2522 25.6365 9.20573 26.9233 9.20573C27.0814 9.20573 27.2383 9.2209 27.3912 9.2524C27.7056 9.31656 28.0142 9.11181 28.0789 8.79623C28.1425 8.48065 27.9383 8.17323 27.6228 8.10848C27.3941 8.0624 27.1584 8.03906 26.9233 8.03906C24.9931 8.03906 23.4233 9.60881 23.4233 11.5391C23.4233 13.4693 24.9931 15.0391 26.9233 15.0391Z" fill="white" stroke="white" stroke-width="0.4"/>
</g>
</svg>
