<svg width="18" height="24" viewBox="0 0 18 24" fill="none" xmlns="http://www.w3.org/2000/svg">
<path d="M1.47817 24V20.8112L9.37103 12.621C10.3604 11.5916 11.0913 10.6406 11.5635 9.76783C12.0357 8.89511 12.2718 8 12.2718 7.08252C12.2718 5.94126 11.912 5.07972 11.1925 4.4979C10.4729 3.91608 9.42725 3.62517 8.05555 3.62517C6.9537 3.62517 5.89683 3.82657 4.88492 4.22937C3.87302 4.60979 2.8836 5.21399 1.91667 6.04196L0.5 2.81958C1.46693 1.96923 2.65873 1.28671 4.0754 0.772028C5.51455 0.257343 7.02116 0 8.59524 0C11.1587 0 13.1263 0.570629 14.498 1.71189C15.8697 2.85315 16.5556 4.48671 16.5556 6.61259C16.5556 8.08951 16.207 9.4993 15.5099 10.842C14.8128 12.1622 13.7335 13.5497 12.2718 15.0042L5.69444 21.5497V20.4084H17.5V24H1.47817Z" fill="white"/>
</svg>
