<svg width="17" height="24" viewBox="0 0 17 24" fill="none" xmlns="http://www.w3.org/2000/svg">
<path id="3" d="M8.36614 24C6.73753 24 5.17585 23.7683 3.6811 23.3048C2.18635 22.8193 0.959317 22.1572 0 21.3186L1.40551 18.1076C2.45407 18.9021 3.53609 19.4869 4.65157 19.8621C5.78937 20.2372 6.98294 20.4248 8.23228 20.4248C9.74934 20.4248 10.8983 20.1269 11.6791 19.531C12.46 18.9352 12.8504 18.0634 12.8504 16.9159C12.8504 15.8124 12.46 14.9848 11.6791 14.4331C10.9206 13.8593 9.80512 13.5724 8.33268 13.5724H4.51772V10.1628H7.96457C9.23622 10.1628 10.2513 9.85379 11.0098 9.23586C11.7684 8.61793 12.1476 7.76828 12.1476 6.6869C12.1476 5.67172 11.7907 4.89931 11.0768 4.36966C10.3852 3.84 9.38123 3.57517 8.06496 3.57517C5.70013 3.57517 3.61417 4.36965 1.80709 5.95862L0.401575 2.78069C1.36089 1.89793 2.54331 1.21379 3.94882 0.728276C5.37664 0.242759 6.87139 0 8.43307 0C10.8871 0 12.8058 0.551724 14.189 1.65517C15.5945 2.73655 16.2972 4.24828 16.2972 6.19035C16.2972 7.58069 15.8957 8.78345 15.0925 9.79862C14.3117 10.7917 13.2297 11.4538 11.8465 11.7848V11.3876C13.4751 11.6524 14.7356 12.3145 15.628 13.3738C16.5427 14.411 17 15.7131 17 17.28C17 19.3545 16.2303 20.9986 14.6909 22.2124C13.1516 23.4041 11.0433 24 8.36614 24Z" fill="white"/>
</svg>
