<svg width="18" height="24" viewBox="0 0 18 24" fill="none" xmlns="http://www.w3.org/2000/svg">
<path id="5" d="M8.73016 24C7.69577 24 6.66138 23.8881 5.62698 23.6643C4.61508 23.4406 3.65939 23.1273 2.75992 22.7245C1.88294 22.3217 1.12963 21.8406 0.5 21.2811L1.91667 18.0252C2.97355 18.8084 4.05291 19.4014 5.15476 19.8042C6.2791 20.1846 7.44841 20.3748 8.6627 20.3748C10.1243 20.3748 11.2599 20.0168 12.0694 19.3007C12.9015 18.5622 13.3175 17.5776 13.3175 16.3469C13.3175 15.0937 12.9239 14.0867 12.1369 13.3259C11.3499 12.5427 10.2705 12.151 8.89881 12.151C7.93188 12.151 7.04365 12.3413 6.23413 12.7217C5.44709 13.0797 4.73876 13.6392 4.10913 14.4H1.24206V0H16.0159V3.55804H5.35714V11.0769H4.31151C4.89616 10.2937 5.67196 9.68951 6.63889 9.26434C7.62831 8.83916 8.73016 8.62657 9.94445 8.62657C11.4735 8.62657 12.8003 8.93986 13.9246 9.56643C15.0489 10.193 15.9259 11.0769 16.5556 12.2182C17.1852 13.3371 17.5 14.6573 17.5 16.179C17.5 17.7231 17.1402 19.0881 16.4206 20.2741C15.7235 21.4378 14.7116 22.3552 13.3849 23.0266C12.0807 23.6755 10.5291 24 8.73016 24Z" fill="white"/>
</svg>
