<svg width="18" height="24" viewBox="0 0 18 24" fill="none" xmlns="http://www.w3.org/2000/svg">
<path id="6" d="M9.65892 24C6.73773 24 4.47545 22.9848 2.87209 20.9545C1.2907 18.9241 0.5 16.0772 0.5 12.4138C0.5 9.76552 0.906331 7.52552 1.71899 5.69379C2.53165 3.84 3.68475 2.42759 5.17829 1.45655C6.6938 0.485518 8.50581 0 10.6143 0C11.8663 0 13.1072 0.231724 14.3372 0.695173C15.5672 1.13655 16.6214 1.77655 17.5 2.61517L16.0833 5.7931C15.2707 5.04276 14.3921 4.49103 13.4477 4.13793C12.5032 3.76276 11.5478 3.57517 10.5814 3.57517C8.60465 3.57517 7.10013 4.24828 6.06783 5.59448C5.03553 6.94069 4.51938 8.94897 4.51938 11.6193V14.1021H4.12403C4.29974 12.9766 4.67313 12.0166 5.24419 11.2221C5.81525 10.4055 6.55103 9.78759 7.45155 9.36828C8.35207 8.9269 9.35142 8.70621 10.4496 8.70621C11.8114 8.70621 13.0194 9.02621 14.0736 9.66621C15.1279 10.3062 15.9516 11.189 16.5446 12.3145C17.1596 13.44 17.4671 14.731 17.4671 16.1876C17.4671 17.6883 17.1266 19.0345 16.4457 20.2262C15.7868 21.3959 14.8753 22.3228 13.7112 23.0069C12.5472 23.669 11.1964 24 9.65892 24ZM9.4283 20.6234C10.241 20.6234 10.9548 20.4469 11.5698 20.0938C12.1848 19.7407 12.657 19.2441 12.9864 18.6041C13.3379 17.9421 13.5136 17.1917 13.5136 16.3531C13.5136 15.4924 13.3379 14.7421 12.9864 14.1021C12.657 13.4621 12.1848 12.9655 11.5698 12.6124C10.9548 12.2372 10.241 12.0497 9.4283 12.0497C8.61563 12.0497 7.90181 12.2372 7.28682 12.6124C6.67183 12.9655 6.18863 13.4621 5.83721 14.1021C5.48579 14.7421 5.31008 15.4924 5.31008 16.3531C5.31008 17.1917 5.48579 17.9421 5.83721 18.6041C6.18863 19.2441 6.67183 19.7407 7.28682 20.0938C7.90181 20.4469 8.61563 20.6234 9.4283 20.6234Z" fill="white"/>
</svg>
