<svg width="32" height="32" viewBox="0 0 32 32" fill="none" xmlns="http://www.w3.org/2000/svg">
<g id="ellipses 1">
<g id="Vector">
<path d="M4.8002 17.6C5.68385 17.6 6.4002 16.8837 6.4002 16C6.4002 15.1164 5.68385 14.4 4.8002 14.4C3.91654 14.4 3.2002 15.1164 3.2002 16C3.2002 16.8837 3.91654 17.6 4.8002 17.6Z" fill="#7AAEFC"/>
<path d="M27.2002 17.6C28.0839 17.6 28.8002 16.8837 28.8002 16C28.8002 15.1164 28.0839 14.4 27.2002 14.4C26.3165 14.4 25.6002 15.1164 25.6002 16C25.6002 16.8837 26.3165 17.6 27.2002 17.6Z" fill="#7AAEFC"/>
<path d="M23.3282 16.832C22.6882 16.448 22.6882 15.552 23.3282 15.168C25.3762 13.92 26.6882 12.128 26.6882 10.144C26.6562 6.30401 21.8882 3.20001 16.0002 3.20001C10.1122 3.20001 5.3442 6.30401 5.3442 10.144C5.3442 12.128 6.6242 13.92 8.7042 15.168C9.3442 15.552 9.3442 16.448 8.7042 16.832C6.6562 18.08 5.3442 19.872 5.3442 21.856C5.3442 25.696 10.1122 28.8 16.0002 28.8C21.8882 28.8 26.6562 25.696 26.6562 21.856C26.6562 19.872 25.3762 18.08 23.3282 16.832ZM7.45619 10.144C7.45619 7.87201 10.9762 5.34401 16.0002 5.34401C21.0242 5.34401 24.5442 7.87201 24.5442 10.144C24.5442 12.416 21.0242 14.944 16.0002 14.944C10.9762 14.944 7.45619 12.416 7.45619 10.144ZM16.0002 26.656C10.9762 26.656 7.45619 24.128 7.45619 21.856C7.45619 19.584 10.9762 17.056 16.0002 17.056C21.0242 17.056 24.5442 19.584 24.5442 21.856C24.5442 24.128 21.0242 26.656 16.0002 26.656Z" fill="#7AAEFC"/>
</g>
</g>
</svg>
