<svg width="32" height="32" viewBox="0 0 32 32" fill="none" xmlns="http://www.w3.org/2000/svg">
<g id="rhombus 1">
<path id="Vector" d="M15.328 3.87198L3.87198 15.328C3.48798 15.712 3.48798 16.32 3.87198 16.672L15.328 28.128C15.712 28.512 16.32 28.512 16.672 28.128L28.128 16.672C28.512 16.288 28.512 15.68 28.128 15.328L16.672 3.87198C16.288 3.48798 15.712 3.48798 15.328 3.87198ZM25.12 16.672L22.336 19.456C21.952 19.84 21.344 19.84 20.992 19.456L20.832 19.296C20.448 18.912 20.448 18.304 20.832 17.952L22.112 16.672C22.496 16.288 22.496 15.68 22.112 15.328L16.672 9.91998C16.288 9.53598 15.68 9.53598 15.328 9.91998L14.048 11.2C13.664 11.584 13.056 11.584 12.704 11.2L12.544 11.04C12.16 10.656 12.16 10.048 12.544 9.69598L15.328 6.91198C15.712 6.52798 16.32 6.52798 16.672 6.91198L25.088 15.328C25.472 15.712 25.472 16.288 25.12 16.672ZM12.928 15.328L15.328 12.928C15.712 12.544 16.32 12.544 16.672 12.928L19.072 15.328C19.456 15.712 19.456 16.32 19.072 16.672L16.672 19.072C16.288 19.456 15.68 19.456 15.328 19.072L12.928 16.672C12.544 16.288 12.544 15.712 12.928 15.328ZM19.456 22.336L16.672 25.12C16.288 25.504 15.68 25.504 15.328 25.12L6.87998 16.672C6.49598 16.288 6.49598 15.68 6.87998 15.328L9.66398 12.544C10.048 12.16 10.656 12.16 11.008 12.544L11.168 12.704C11.552 13.088 11.552 13.696 11.168 14.048L9.88798 15.328C9.50398 15.712 9.50398 16.32 9.88798 16.672L15.328 22.08C15.712 22.464 16.32 22.464 16.672 22.08L17.952 20.8C18.336 20.416 18.944 20.416 19.296 20.8L19.456 20.96C19.84 21.344 19.84 21.952 19.456 22.336Z" fill="#9867FF"/>
</g>
</svg>
