<svg width="32" height="32" viewBox="0 0 32 32" fill="none" xmlns="http://www.w3.org/2000/svg">
<g id="atom 1">
<path id="Vector" d="M28.064 3.93597C26.272 2.14397 21.632 3.77597 16.576 7.58397C16.224 7.83997 15.776 7.83997 15.424 7.58397C10.368 3.77597 5.69603 2.14397 3.93603 3.93597C2.14403 5.72797 3.77603 10.368 7.58403 15.456C7.84003 15.808 7.84003 16.256 7.58403 16.608C3.77603 21.664 2.14403 26.336 3.93603 28.128C5.72803 29.92 10.368 28.288 15.456 24.48C15.808 24.224 16.256 24.224 16.608 24.48C21.664 28.288 26.336 29.92 28.096 28.128C29.888 26.336 28.256 21.696 24.448 16.608C24.192 16.256 24.192 15.808 24.448 15.456C28.256 10.368 29.856 5.69597 28.064 3.93597ZM25.984 5.34397C26.368 5.34397 26.528 5.43997 26.56 5.43997C26.656 5.53597 26.944 6.75197 25.6 9.53597C25.024 10.752 24.256 12.032 23.296 13.344C22.944 13.856 22.208 13.888 21.824 13.44C21.312 12.896 20.768 12.32 20.224 11.776C19.68 11.232 19.104 10.688 18.56 10.176C18.112 9.75997 18.144 9.05597 18.656 8.70397C21.76 6.46397 24.448 5.34397 25.984 5.34397ZM20.704 15.36C21.024 15.712 21.024 16.256 20.704 16.64C20.096 17.344 19.424 18.048 18.72 18.752C18.016 19.456 17.312 20.096 16.64 20.704C16.288 21.024 15.744 21.024 15.36 20.704C14.656 20.096 13.952 19.424 13.248 18.72C12.544 18.016 11.904 17.312 11.296 16.64C10.976 16.288 10.976 15.744 11.296 15.36C11.904 14.656 12.576 13.952 13.28 13.248C13.984 12.544 14.688 11.904 15.36 11.296C15.712 10.976 16.256 10.976 16.64 11.296C17.344 11.904 18.048 12.576 18.752 13.28C19.424 13.984 20.096 14.656 20.704 15.36ZM5.34403 6.01597C5.34403 5.63197 5.44003 5.47197 5.44003 5.43997C5.53603 5.34397 6.75203 5.05597 9.53603 6.39997C10.752 6.97597 12.032 7.74397 13.344 8.70397C13.856 9.05597 13.888 9.79197 13.44 10.176C12.896 10.688 12.32 11.232 11.776 11.776C11.232 12.32 10.688 12.896 10.176 13.44C9.76003 13.888 9.05603 13.856 8.70403 13.344C6.46403 10.24 5.34403 7.55197 5.34403 6.01597ZM6.01603 26.656C5.63203 26.656 5.47203 26.56 5.44003 26.56C5.34403 26.464 5.05603 25.248 6.40003 22.464C6.97603 21.248 7.74403 19.968 8.70403 18.656C9.05603 18.144 9.79203 18.112 10.176 18.56C10.688 19.104 11.232 19.68 11.776 20.224C12.32 20.768 12.896 21.312 13.44 21.824C13.888 22.24 13.856 22.944 13.344 23.296C10.24 25.536 7.55203 26.656 6.01603 26.656ZM26.656 25.984C26.656 26.368 26.56 26.528 26.56 26.56C26.464 26.656 25.248 26.944 22.464 25.6C21.248 25.024 19.968 24.256 18.656 23.296C18.144 22.944 18.112 22.208 18.56 21.824C19.104 21.312 19.68 20.8 20.224 20.224C20.768 19.68 21.312 19.104 21.824 18.56C22.24 18.112 22.944 18.144 23.296 18.656C25.536 21.76 26.656 24.448 26.656 25.984Z" fill="#9867FF"/>
</g>
</svg>
