<svg width="32" height="32" viewBox="0 0 32 32" fill="none" xmlns="http://www.w3.org/2000/svg">
<g id="lines 1">
<path id="Vector" d="M24.5121 14.752C24.0641 21.12 18.9761 26.208 12.6401 26.624C12.1281 26.656 11.7441 27.072 11.7441 27.584V27.808C11.7441 28.352 12.1921 28.8 12.7681 28.768C20.2241 28.256 26.1761 22.304 26.6561 14.88C26.6881 14.336 26.2401 13.856 25.6961 13.856H25.4721C24.9601 13.856 24.5441 14.272 24.5121 14.752Z" fill="#7AAEFC"/>
<path id="Vector_2" d="M11.7441 4.22397C11.7441 3.64797 12.2561 3.19997 12.8001 3.26397C18.1761 3.77597 22.4001 8.31997 22.4001 13.856C22.4001 19.392 18.1761 23.936 12.8001 24.48C12.2241 24.544 11.7441 24.096 11.7441 23.52V23.296C11.7441 22.816 12.1281 22.4 12.6081 22.368C16.8961 21.92 20.2561 18.304 20.2561 13.888C20.2561 9.47197 16.8961 5.82397 12.6081 5.40797C12.1281 5.34397 11.7441 4.95997 11.7441 4.47997V4.22397Z" fill="#7AAEFC"/>
<path id="Vector_3" d="M5.44012 12.768C5.98412 9.66401 8.76812 7.29601 12.0961 7.48801C15.2001 7.64801 17.7601 10.08 18.1121 13.152C18.4961 16.64 16.0961 19.616 12.8641 20.192C12.2881 20.288 11.7761 19.84 11.7761 19.232V19.04C11.7761 18.528 12.0961 18.144 12.5761 18.048C14.7201 17.664 16.2881 15.648 16.0321 13.376C15.8081 11.424 14.2401 9.82401 12.2881 9.63201C9.98412 9.37601 8.00012 10.944 7.61612 13.088C7.52012 13.536 7.13612 13.888 6.68812 13.888C6.59212 13.888 6.49612 13.888 6.49612 13.888C5.79212 13.856 5.31212 13.344 5.44012 12.768Z" fill="#7AAEFC"/>
</g>
</svg>
