<svg width="32" height="32" viewBox="0 0 32 32" fill="none" xmlns="http://www.w3.org/2000/svg">
<g id="abstract-shape (3) 1">
<g id="Vector">
<path d="M19.0991 30.75C19.6957 30.7493 20.2676 30.5121 20.6894 30.0903C21.1112 29.6685 21.3485 29.0965 21.3491 28.5V23.2451H26.5049C27.1014 23.2445 27.6733 23.0072 28.0952 22.5854C28.517 22.1636 28.7542 21.5917 28.7549 20.9951V10.9951C28.7542 10.3986 28.517 9.82666 28.0952 9.40485C27.6733 8.98303 27.1014 8.74577 26.5049 8.74512H19.27V3.5C19.2694 2.90346 19.0321 2.33154 18.6103 1.90973C18.1885 1.48791 17.6165 1.25065 17.02 1.25H9.02C8.42346 1.25065 7.85154 1.48791 7.42973 1.90973C7.00791 2.33154 6.77065 2.90346 6.77 3.5V11.5C6.77065 12.0965 7.00791 12.6685 7.42973 13.0903C7.85154 13.5121 8.42346 13.7494 9.02 13.75H14.2549V18.25H8.9209C8.32436 18.2507 7.75244 18.4879 7.33063 18.9097C6.90881 19.3315 6.67155 19.9035 6.6709 20.5V28.5C6.67155 29.0965 6.90881 29.6685 7.33063 30.0903C7.75244 30.5121 8.32436 30.7493 8.9209 30.75H19.0991ZM19.8491 21.7451H16.5049C16.306 21.7449 16.1154 21.6658 15.9748 21.5252C15.8342 21.3846 15.7551 21.194 15.7549 20.9951V19.75H19.0991C19.298 19.7502 19.4886 19.8293 19.6292 19.9699C19.7698 20.1105 19.8489 20.3012 19.8491 20.5V21.7451ZM19.27 11.5V10.2451H26.5049C26.7037 10.2453 26.8944 10.3244 27.035 10.465C27.1756 10.6056 27.2547 10.7963 27.2549 10.9951V20.9951C27.2547 21.194 27.1756 21.3846 27.035 21.5252C26.8944 21.6658 26.7037 21.7449 26.5049 21.7451H21.3491V20.5C21.3485 19.9035 21.1112 19.3315 20.6894 18.9097C20.2676 18.4879 19.6957 18.2507 19.0991 18.25H15.7549V13.75H17.02C17.6165 13.7493 18.1885 13.5121 18.6103 13.0903C19.0321 12.6685 19.2694 12.0965 19.27 11.5ZM15.7549 12.25V10.9951C15.7551 10.7963 15.8342 10.6056 15.9748 10.465C16.1154 10.3244 16.306 10.2453 16.5049 10.2451H17.77V11.5C17.7698 11.6988 17.6907 11.8895 17.5501 12.0301C17.4095 12.1707 17.2188 12.2498 17.02 12.25H15.7549ZM9.02 12.25C8.82115 12.2498 8.63051 12.1707 8.48991 12.0301C8.3493 11.8895 8.27022 11.6988 8.27 11.5V3.5C8.27022 3.30115 8.3493 3.11051 8.48991 2.96991C8.63051 2.8293 8.82115 2.75022 9.02 2.75H17.02C17.2188 2.75022 17.4095 2.8293 17.5501 2.96991C17.6907 3.11051 17.7698 3.30115 17.77 3.5V8.74512H16.5049C15.9083 8.74577 15.3364 8.98303 14.9146 9.40484C14.4928 9.82666 14.2555 10.3986 14.2549 10.9951V12.25H9.02ZM8.1709 28.5V20.5C8.17112 20.3012 8.2502 20.1105 8.39081 19.9699C8.53142 19.8293 8.72205 19.7502 8.9209 19.75H14.2549V20.9951C14.2555 21.5917 14.4928 22.1636 14.9146 22.5854C15.3364 23.0072 15.9084 23.2445 16.5049 23.2451H19.8491V28.5C19.8489 28.6988 19.7698 28.8895 19.6292 29.0301C19.4886 29.1707 19.298 29.2498 19.0991 29.25H8.9209C8.72205 29.2498 8.53142 29.1707 8.39081 29.0301C8.2502 28.8895 8.17112 28.6988 8.1709 28.5Z" fill="#7AAEFC"/>
<path d="M30.75 2.5C30.75 2.4015 30.7306 2.30397 30.6929 2.21297C30.6553 2.12197 30.6 2.03928 30.5304 1.96964C30.4607 1.89999 30.378 1.84475 30.287 1.80706C30.196 1.76937 30.0985 1.74998 30 1.75H27C26.9015 1.74998 26.804 1.76937 26.713 1.80706C26.622 1.84475 26.5393 1.89999 26.4696 1.96964C26.4 2.03928 26.3447 2.12197 26.3071 2.21297C26.2694 2.30397 26.25 2.4015 26.25 2.5V5.5C26.25 5.5985 26.2694 5.69603 26.3071 5.78703C26.3447 5.87803 26.4 5.96072 26.4696 6.03036C26.5393 6.10001 26.622 6.15525 26.713 6.19294C26.804 6.23063 26.9015 6.25002 27 6.25H30C30.0985 6.25002 30.196 6.23063 30.287 6.19294C30.378 6.15525 30.4607 6.10001 30.5304 6.03036C30.6 5.96072 30.6553 5.87803 30.6929 5.78703C30.7306 5.69603 30.75 5.5985 30.75 5.5V2.5ZM29.25 4.75H27.75V3.25H29.25V4.75Z" fill="#7AAEFC"/>
<path d="M2 18.25H5C5.0985 18.25 5.19603 18.2306 5.28703 18.1929C5.37803 18.1553 5.46072 18.1 5.53036 18.0304C5.60001 17.9607 5.65525 17.878 5.69294 17.787C5.73063 17.696 5.75002 17.5985 5.75 17.5V14.5C5.75002 14.4015 5.73063 14.304 5.69294 14.213C5.65525 14.122 5.60001 14.0393 5.53036 13.9696C5.46072 13.9 5.37803 13.8447 5.28703 13.8071C5.19603 13.7694 5.0985 13.75 5 13.75H2C1.9015 13.75 1.80397 13.7694 1.71297 13.8071C1.62197 13.8447 1.53928 13.9 1.46964 13.9696C1.39999 14.0393 1.34475 14.122 1.30706 14.213C1.26937 14.304 1.24998 14.4015 1.25 14.5V17.5C1.24998 17.5985 1.26937 17.696 1.30706 17.787C1.34475 17.878 1.39999 17.9607 1.46964 18.0304C1.53928 18.1 1.62197 18.1553 1.71297 18.1929C1.80397 18.2306 1.9015 18.25 2 18.25ZM2.75 15.25H4.25V16.75H2.75V15.25Z" fill="#7AAEFC"/>
<path d="M30.75 26.5C30.75 26.4015 30.7306 26.304 30.6929 26.213C30.6553 26.122 30.6 26.0393 30.5304 25.9696C30.4607 25.9 30.378 25.8447 30.287 25.8071C30.196 25.7694 30.0985 25.75 30 25.75H27C26.9015 25.75 26.804 25.7694 26.713 25.8071C26.622 25.8447 26.5393 25.9 26.4696 25.9696C26.4 26.0393 26.3447 26.122 26.3071 26.213C26.2694 26.304 26.25 26.4015 26.25 26.5V29.5C26.25 29.5985 26.2694 29.696 26.3071 29.787C26.3447 29.878 26.4 29.9607 26.4696 30.0304C26.5393 30.1 26.622 30.1553 26.713 30.1929C26.804 30.2306 26.9015 30.25 27 30.25H30C30.0985 30.25 30.196 30.2306 30.287 30.1929C30.378 30.1553 30.4607 30.1 30.5304 30.0304C30.6 29.9607 30.6553 29.878 30.6929 29.787C30.7306 29.696 30.75 29.5985 30.75 29.5V26.5ZM29.25 28.75H27.75V27.25H29.25V28.75Z" fill="#7AAEFC"/>
<path d="M19.0991 30.75C19.6957 30.7493 20.2676 30.5121 20.6894 30.0903C21.1112 29.6685 21.3485 29.0965 21.3491 28.5V23.2451H26.5049C27.1014 23.2445 27.6733 23.0072 28.0952 22.5854C28.517 22.1636 28.7542 21.5917 28.7549 20.9951V10.9951C28.7542 10.3986 28.517 9.82666 28.0952 9.40485C27.6733 8.98303 27.1014 8.74577 26.5049 8.74512H19.27V3.5C19.2694 2.90346 19.0321 2.33154 18.6103 1.90973C18.1885 1.48791 17.6165 1.25065 17.02 1.25H9.02C8.42346 1.25065 7.85154 1.48791 7.42973 1.90973C7.00791 2.33154 6.77065 2.90346 6.77 3.5V11.5C6.77065 12.0965 7.00791 12.6685 7.42973 13.0903C7.85154 13.5121 8.42346 13.7494 9.02 13.75H14.2549V18.25H8.9209C8.32436 18.2507 7.75244 18.4879 7.33063 18.9097C6.90881 19.3315 6.67155 19.9035 6.6709 20.5V28.5C6.67155 29.0965 6.90881 29.6685 7.33063 30.0903C7.75244 30.5121 8.32436 30.7493 8.9209 30.75H19.0991ZM19.8491 21.7451H16.5049C16.306 21.7449 16.1154 21.6658 15.9748 21.5252C15.8342 21.3846 15.7551 21.194 15.7549 20.9951V19.75H19.0991C19.298 19.7502 19.4886 19.8293 19.6292 19.9699C19.7698 20.1105 19.8489 20.3012 19.8491 20.5V21.7451ZM19.27 11.5V10.2451H26.5049C26.7037 10.2453 26.8944 10.3244 27.035 10.465C27.1756 10.6056 27.2547 10.7963 27.2549 10.9951V20.9951C27.2547 21.194 27.1756 21.3846 27.035 21.5252C26.8944 21.6658 26.7037 21.7449 26.5049 21.7451H21.3491V20.5C21.3485 19.9035 21.1112 19.3315 20.6894 18.9097C20.2676 18.4879 19.6957 18.2507 19.0991 18.25H15.7549V13.75H17.02C17.6165 13.7493 18.1885 13.5121 18.6103 13.0903C19.0321 12.6685 19.2694 12.0965 19.27 11.5ZM15.7549 12.25V10.9951C15.7551 10.7963 15.8342 10.6056 15.9748 10.465C16.1154 10.3244 16.306 10.2453 16.5049 10.2451H17.77V11.5C17.7698 11.6988 17.6907 11.8895 17.5501 12.0301C17.4095 12.1707 17.2188 12.2498 17.02 12.25H15.7549ZM9.02 12.25C8.82115 12.2498 8.63051 12.1707 8.48991 12.0301C8.3493 11.8895 8.27022 11.6988 8.27 11.5V3.5C8.27022 3.30115 8.3493 3.11051 8.48991 2.96991C8.63051 2.8293 8.82115 2.75022 9.02 2.75H17.02C17.2188 2.75022 17.4095 2.8293 17.5501 2.96991C17.6907 3.11051 17.7698 3.30115 17.77 3.5V8.74512H16.5049C15.9083 8.74577 15.3364 8.98303 14.9146 9.40484C14.4928 9.82666 14.2555 10.3986 14.2549 10.9951V12.25H9.02ZM8.1709 28.5V20.5C8.17112 20.3012 8.2502 20.1105 8.39081 19.9699C8.53142 19.8293 8.72205 19.7502 8.9209 19.75H14.2549V20.9951C14.2555 21.5917 14.4928 22.1636 14.9146 22.5854C15.3364 23.0072 15.9084 23.2445 16.5049 23.2451H19.8491V28.5C19.8489 28.6988 19.7698 28.8895 19.6292 29.0301C19.4886 29.1707 19.298 29.2498 19.0991 29.25H8.9209C8.72205 29.2498 8.53142 29.1707 8.39081 29.0301C8.2502 28.8895 8.17112 28.6988 8.1709 28.5Z" stroke="#7AAEFC" stroke-width="0.4"/>
<path d="M30.75 2.5C30.75 2.4015 30.7306 2.30397 30.6929 2.21297C30.6553 2.12197 30.6 2.03928 30.5304 1.96964C30.4607 1.89999 30.378 1.84475 30.287 1.80706C30.196 1.76937 30.0985 1.74998 30 1.75H27C26.9015 1.74998 26.804 1.76937 26.713 1.80706C26.622 1.84475 26.5393 1.89999 26.4696 1.96964C26.4 2.03928 26.3447 2.12197 26.3071 2.21297C26.2694 2.30397 26.25 2.4015 26.25 2.5V5.5C26.25 5.5985 26.2694 5.69603 26.3071 5.78703C26.3447 5.87803 26.4 5.96072 26.4696 6.03036C26.5393 6.10001 26.622 6.15525 26.713 6.19294C26.804 6.23063 26.9015 6.25002 27 6.25H30C30.0985 6.25002 30.196 6.23063 30.287 6.19294C30.378 6.15525 30.4607 6.10001 30.5304 6.03036C30.6 5.96072 30.6553 5.87803 30.6929 5.78703C30.7306 5.69603 30.75 5.5985 30.75 5.5V2.5ZM29.25 4.75H27.75V3.25H29.25V4.75Z" stroke="#7AAEFC" stroke-width="0.4"/>
<path d="M2 18.25H5C5.0985 18.25 5.19603 18.2306 5.28703 18.1929C5.37803 18.1553 5.46072 18.1 5.53036 18.0304C5.60001 17.9607 5.65525 17.878 5.69294 17.787C5.73063 17.696 5.75002 17.5985 5.75 17.5V14.5C5.75002 14.4015 5.73063 14.304 5.69294 14.213C5.65525 14.122 5.60001 14.0393 5.53036 13.9696C5.46072 13.9 5.37803 13.8447 5.28703 13.8071C5.19603 13.7694 5.0985 13.75 5 13.75H2C1.9015 13.75 1.80397 13.7694 1.71297 13.8071C1.62197 13.8447 1.53928 13.9 1.46964 13.9696C1.39999 14.0393 1.34475 14.122 1.30706 14.213C1.26937 14.304 1.24998 14.4015 1.25 14.5V17.5C1.24998 17.5985 1.26937 17.696 1.30706 17.787C1.34475 17.878 1.39999 17.9607 1.46964 18.0304C1.53928 18.1 1.62197 18.1553 1.71297 18.1929C1.80397 18.2306 1.9015 18.25 2 18.25ZM2.75 15.25H4.25V16.75H2.75V15.25Z" stroke="#7AAEFC" stroke-width="0.4"/>
<path d="M30.75 26.5C30.75 26.4015 30.7306 26.304 30.6929 26.213C30.6553 26.122 30.6 26.0393 30.5304 25.9696C30.4607 25.9 30.378 25.8447 30.287 25.8071C30.196 25.7694 30.0985 25.75 30 25.75H27C26.9015 25.75 26.804 25.7694 26.713 25.8071C26.622 25.8447 26.5393 25.9 26.4696 25.9696C26.4 26.0393 26.3447 26.122 26.3071 26.213C26.2694 26.304 26.25 26.4015 26.25 26.5V29.5C26.25 29.5985 26.2694 29.696 26.3071 29.787C26.3447 29.878 26.4 29.9607 26.4696 30.0304C26.5393 30.1 26.622 30.1553 26.713 30.1929C26.804 30.2306 26.9015 30.25 27 30.25H30C30.0985 30.25 30.196 30.2306 30.287 30.1929C30.378 30.1553 30.4607 30.1 30.5304 30.0304C30.6 29.9607 30.6553 29.878 30.6929 29.787C30.7306 29.696 30.75 29.5985 30.75 29.5V26.5ZM29.25 28.75H27.75V27.25H29.25V28.75Z" stroke="#7AAEFC" stroke-width="0.4"/>
</g>
</g>
</svg>
