<svg width="32" height="32" viewBox="0 0 32 32" fill="none" xmlns="http://www.w3.org/2000/svg">
<g id="petals 1">
<path id="Vector" d="M3.2002 27.84C3.2002 28.384 3.6162 28.7999 4.1602 28.7999H11.0722C15.4242 28.7999 18.9442 25.28 18.9442 20.928C18.9442 20.608 18.9122 20.256 18.8802 19.936C18.8162 19.328 19.3282 18.784 19.9362 18.88C20.2562 18.912 20.5762 18.944 20.8962 18.944C25.2802 18.944 28.8002 15.424 28.8002 11.072V4.15995C28.8002 3.61595 28.3842 3.19995 27.8402 3.19995H20.9282C16.5762 3.19995 13.0562 6.71995 13.0562 11.072C13.0562 11.392 13.0882 11.744 13.1202 12.064C13.1842 12.672 12.6722 13.216 12.0642 13.12C11.7442 13.088 11.4242 13.056 11.1042 13.056C6.7202 13.056 3.2002 16.576 3.2002 20.928V27.84ZM15.2002 11.072C15.2002 9.43995 15.8722 7.90395 17.1202 6.78395C18.2082 5.82395 19.6162 5.34395 21.0882 5.34395H25.7282C26.2722 5.34395 26.6882 5.75995 26.6882 6.30395V11.072C26.6882 13.312 25.4402 15.328 23.2642 16.352C23.2322 16.384 23.2002 16.384 23.1682 16.384C19.0402 17.92 15.2002 14.944 15.2002 11.072ZM6.7842 26.656C5.7602 26.656 5.3442 26.24 5.3442 25.696V20.928C5.3442 18.688 6.5922 16.672 8.8002 15.648C8.8322 15.648 8.86419 15.616 8.89619 15.616C13.0242 14.048 16.9282 17.152 16.8322 21.088C16.7362 24.224 14.0482 26.656 10.9122 26.656H6.7842Z" fill="#9867FF"/>
<path id="Vector_2" d="M3.2002 7.45595C3.2002 9.82395 5.12019 11.712 7.45619 11.712C9.79219 11.712 11.7122 9.79195 11.7122 7.45595C11.7122 5.08795 9.79219 3.19995 7.45619 3.19995C5.12019 3.19995 3.2002 5.11995 3.2002 7.45595ZM5.3442 7.45595C5.3442 6.27195 6.3042 5.31195 7.48819 5.31195C8.67219 5.31195 9.6322 6.27195 9.6322 7.45595C9.6322 8.63995 8.67219 9.59995 7.48819 9.59995C6.3042 9.59995 5.3442 8.63995 5.3442 7.45595Z" fill="#9867FF"/>
<path id="Vector_3" d="M22.3999 25.5999C22.3999 27.3599 23.8399 28.7999 25.5999 28.7999C27.3599 28.7999 28.7999 27.3599 28.7999 25.5999C28.7999 23.8399 27.3599 22.3999 25.5999 22.3999C23.8399 22.3999 22.3999 23.8399 22.3999 25.5999ZM24.5439 25.5999C24.5439 25.0239 25.0239 24.5439 25.5999 24.5439C26.1759 24.5439 26.6559 25.0239 26.6559 25.5999C26.6559 26.1759 26.1759 26.6559 25.5999 26.6559C25.0239 26.6559 24.5439 26.1759 24.5439 25.5999Z" fill="#9867FF"/>
</g>
</svg>
