<svg width="32" height="32" viewBox="0 0 32 32" fill="none" xmlns="http://www.w3.org/2000/svg">
<g id="abstract-shape (4) 1">
<g id="Vector">
<mask id="path-1-outside-1_161_1295" maskUnits="userSpaceOnUse" x="0.25" y="0.255371" width="31" height="31" fill="black">
<rect fill="white" x="0.25" y="0.255371" width="31" height="31"/>
<path d="M24 9.24994H22.75V7.99994C22.753 7.11293 22.58 6.23414 22.2411 5.41444C21.9021 4.59474 21.4039 3.85042 20.7754 3.22455C16.6068 -1.00945 9.21033 2.04632 9.25006 8.00005L9.25 9.24994H8C6.20979 9.24994 4.4929 9.96109 3.22703 11.227C1.96116 12.4928 1.25 14.2097 1.25 15.9999C1.25 17.7901 1.96116 19.507 3.22703 20.7729C4.4929 22.0388 6.20979 22.7499 8 22.7499H9.25V23.9999C9.25 25.7901 9.96116 27.507 11.227 28.7729C12.4929 30.0388 14.2098 30.7499 16 30.7499C17.7902 30.7499 19.5071 30.0388 20.773 28.7729C22.0388 27.507 22.75 25.7901 22.75 23.9999V22.7499H24C25.7902 22.7499 27.5071 22.0388 28.773 20.7729C30.0388 19.507 30.75 17.7901 30.75 15.9999C30.75 14.2097 30.0388 12.4928 28.773 11.227C27.5071 9.96109 25.7902 9.24994 24 9.24994ZM10.75 7.99994C10.7484 7.30944 10.8829 6.62541 11.146 5.987C11.4091 5.34859 11.7956 4.76836 12.2833 4.27952C12.7709 3.79068 13.3502 3.40285 13.988 3.13823C14.6258 2.87361 15.3095 2.7374 16 2.7374C16.6905 2.7374 17.3742 2.87362 18.012 3.13824C18.6498 3.40287 19.2291 3.7907 19.7167 4.27954C20.2044 4.76838 20.5909 5.34862 20.854 5.98703C21.117 6.62543 21.2516 7.30947 21.25 7.99997L21.25 9.24994H19.75V7.99994C19.5743 3.0372 12.4253 3.0376 12.25 8V18.2499H10.75V7.99994ZM18.25 7.99994V9.24994H13.75V7.99994C13.75 7.4032 13.9871 6.8309 14.409 6.40895C14.831 5.98699 15.4033 5.74994 16 5.74994C16.5967 5.74994 17.169 5.98699 17.591 6.40895C18.0129 6.8309 18.25 7.4032 18.25 7.99994ZM13.75 13.7499H18.25V18.2499H13.75V13.7499ZM8 21.2499C6.60761 21.2499 5.27225 20.6968 4.28769 19.7122C3.30312 18.7277 2.75 17.3923 2.75 15.9999C2.75 14.6075 3.30312 13.2722 4.28769 12.2876C5.27225 11.3031 6.60761 10.7499 8 10.7499H9.25V12.2499H8C3.03742 12.4256 3.0375 19.5746 8.00006 19.7499H18.25V21.2499H8ZM9.25 13.7499V18.2499H8C7.40675 18.2446 6.8396 18.0052 6.42198 17.5838C6.00436 17.1625 5.77006 16.5932 5.77006 15.9999C5.77007 15.4066 6.00439 14.8374 6.42202 14.416C6.83966 13.9946 7.40681 13.7552 8.00006 13.7499H9.25ZM18.25 22.7499V23.9999C18.25 24.5967 18.0129 25.169 17.591 25.5909C17.169 26.0129 16.5967 26.2499 16 26.2499C15.4033 26.2499 14.831 26.0129 14.409 25.5909C13.9871 25.169 13.75 24.5967 13.75 23.9999V22.7499H18.25ZM21.25 23.9999C21.25 25.3923 20.6969 26.7277 19.7123 27.7122C18.7277 28.6968 17.3924 29.2499 16 29.2499C14.6076 29.2499 13.2723 28.6968 12.2877 27.7122C11.3031 26.7277 10.75 25.3923 10.75 23.9999V22.7499H12.25V23.9999C12.4257 28.9625 19.5746 28.9624 19.75 23.9999V13.7499H21.25V23.9999ZM27.7148 19.7148C27.2279 20.2035 26.6488 20.5909 26.0112 20.8544C25.3735 21.1179 24.6899 21.2523 24 21.2499H22.75V19.7499H24C24.9946 19.7499 25.9484 19.3549 26.6517 18.6516C27.3549 17.9483 27.75 16.9945 27.75 15.9999C27.75 15.0054 27.3549 14.0515 26.6517 13.3483C25.9484 12.645 24.9946 12.2499 24 12.2499H13.75V10.7499H24C28.6295 10.7192 31.0081 16.4721 27.7148 19.7148ZM22.75 18.2499V13.7499H24C24.5933 13.7552 25.1604 13.9946 25.578 14.416C25.9956 14.8374 26.2299 15.4067 26.2299 16C26.2299 16.5932 25.9956 17.1625 25.578 17.5839C25.1603 18.0053 24.5932 18.2446 23.9999 18.2499H22.75Z"/>
</mask>
<path d="M24 9.24994H22.75V7.99994C22.753 7.11293 22.58 6.23414 22.2411 5.41444C21.9021 4.59474 21.4039 3.85042 20.7754 3.22455C16.6068 -1.00945 9.21033 2.04632 9.25006 8.00005L9.25 9.24994H8C6.20979 9.24994 4.4929 9.96109 3.22703 11.227C1.96116 12.4928 1.25 14.2097 1.25 15.9999C1.25 17.7901 1.96116 19.507 3.22703 20.7729C4.4929 22.0388 6.20979 22.7499 8 22.7499H9.25V23.9999C9.25 25.7901 9.96116 27.507 11.227 28.7729C12.4929 30.0388 14.2098 30.7499 16 30.7499C17.7902 30.7499 19.5071 30.0388 20.773 28.7729C22.0388 27.507 22.75 25.7901 22.75 23.9999V22.7499H24C25.7902 22.7499 27.5071 22.0388 28.773 20.7729C30.0388 19.507 30.75 17.7901 30.75 15.9999C30.75 14.2097 30.0388 12.4928 28.773 11.227C27.5071 9.96109 25.7902 9.24994 24 9.24994ZM10.75 7.99994C10.7484 7.30944 10.8829 6.62541 11.146 5.987C11.4091 5.34859 11.7956 4.76836 12.2833 4.27952C12.7709 3.79068 13.3502 3.40285 13.988 3.13823C14.6258 2.87361 15.3095 2.7374 16 2.7374C16.6905 2.7374 17.3742 2.87362 18.012 3.13824C18.6498 3.40287 19.2291 3.7907 19.7167 4.27954C20.2044 4.76838 20.5909 5.34862 20.854 5.98703C21.117 6.62543 21.2516 7.30947 21.25 7.99997L21.25 9.24994H19.75V7.99994C19.5743 3.0372 12.4253 3.0376 12.25 8V18.2499H10.75V7.99994ZM18.25 7.99994V9.24994H13.75V7.99994C13.75 7.4032 13.9871 6.8309 14.409 6.40895C14.831 5.98699 15.4033 5.74994 16 5.74994C16.5967 5.74994 17.169 5.98699 17.591 6.40895C18.0129 6.8309 18.25 7.4032 18.25 7.99994ZM13.75 13.7499H18.25V18.2499H13.75V13.7499ZM8 21.2499C6.60761 21.2499 5.27225 20.6968 4.28769 19.7122C3.30312 18.7277 2.75 17.3923 2.75 15.9999C2.75 14.6075 3.30312 13.2722 4.28769 12.2876C5.27225 11.3031 6.60761 10.7499 8 10.7499H9.25V12.2499H8C3.03742 12.4256 3.0375 19.5746 8.00006 19.7499H18.25V21.2499H8ZM9.25 13.7499V18.2499H8C7.40675 18.2446 6.8396 18.0052 6.42198 17.5838C6.00436 17.1625 5.77006 16.5932 5.77006 15.9999C5.77007 15.4066 6.00439 14.8374 6.42202 14.416C6.83966 13.9946 7.40681 13.7552 8.00006 13.7499H9.25ZM18.25 22.7499V23.9999C18.25 24.5967 18.0129 25.169 17.591 25.5909C17.169 26.0129 16.5967 26.2499 16 26.2499C15.4033 26.2499 14.831 26.0129 14.409 25.5909C13.9871 25.169 13.75 24.5967 13.75 23.9999V22.7499H18.25ZM21.25 23.9999C21.25 25.3923 20.6969 26.7277 19.7123 27.7122C18.7277 28.6968 17.3924 29.2499 16 29.2499C14.6076 29.2499 13.2723 28.6968 12.2877 27.7122C11.3031 26.7277 10.75 25.3923 10.75 23.9999V22.7499H12.25V23.9999C12.4257 28.9625 19.5746 28.9624 19.75 23.9999V13.7499H21.25V23.9999ZM27.7148 19.7148C27.2279 20.2035 26.6488 20.5909 26.0112 20.8544C25.3735 21.1179 24.6899 21.2523 24 21.2499H22.75V19.7499H24C24.9946 19.7499 25.9484 19.3549 26.6517 18.6516C27.3549 17.9483 27.75 16.9945 27.75 15.9999C27.75 15.0054 27.3549 14.0515 26.6517 13.3483C25.9484 12.645 24.9946 12.2499 24 12.2499H13.75V10.7499H24C28.6295 10.7192 31.0081 16.4721 27.7148 19.7148ZM22.75 18.2499V13.7499H24C24.5933 13.7552 25.1604 13.9946 25.578 14.416C25.9956 14.8374 26.2299 15.4067 26.2299 16C26.2299 16.5932 25.9956 17.1625 25.578 17.5839C25.1603 18.0053 24.5932 18.2446 23.9999 18.2499H22.75Z" fill="#9867FF"/>
<path d="M24 9.24994H22.75V7.99994C22.753 7.11293 22.58 6.23414 22.2411 5.41444C21.9021 4.59474 21.4039 3.85042 20.7754 3.22455C16.6068 -1.00945 9.21033 2.04632 9.25006 8.00005L9.25 9.24994H8C6.20979 9.24994 4.4929 9.96109 3.22703 11.227C1.96116 12.4928 1.25 14.2097 1.25 15.9999C1.25 17.7901 1.96116 19.507 3.22703 20.7729C4.4929 22.0388 6.20979 22.7499 8 22.7499H9.25V23.9999C9.25 25.7901 9.96116 27.507 11.227 28.7729C12.4929 30.0388 14.2098 30.7499 16 30.7499C17.7902 30.7499 19.5071 30.0388 20.773 28.7729C22.0388 27.507 22.75 25.7901 22.75 23.9999V22.7499H24C25.7902 22.7499 27.5071 22.0388 28.773 20.7729C30.0388 19.507 30.75 17.7901 30.75 15.9999C30.75 14.2097 30.0388 12.4928 28.773 11.227C27.5071 9.96109 25.7902 9.24994 24 9.24994ZM10.75 7.99994C10.7484 7.30944 10.8829 6.62541 11.146 5.987C11.4091 5.34859 11.7956 4.76836 12.2833 4.27952C12.7709 3.79068 13.3502 3.40285 13.988 3.13823C14.6258 2.87361 15.3095 2.7374 16 2.7374C16.6905 2.7374 17.3742 2.87362 18.012 3.13824C18.6498 3.40287 19.2291 3.7907 19.7167 4.27954C20.2044 4.76838 20.5909 5.34862 20.854 5.98703C21.117 6.62543 21.2516 7.30947 21.25 7.99997L21.25 9.24994H19.75V7.99994C19.5743 3.0372 12.4253 3.0376 12.25 8V18.2499H10.75V7.99994ZM18.25 7.99994V9.24994H13.75V7.99994C13.75 7.4032 13.9871 6.8309 14.409 6.40895C14.831 5.98699 15.4033 5.74994 16 5.74994C16.5967 5.74994 17.169 5.98699 17.591 6.40895C18.0129 6.8309 18.25 7.4032 18.25 7.99994ZM13.75 13.7499H18.25V18.2499H13.75V13.7499ZM8 21.2499C6.60761 21.2499 5.27225 20.6968 4.28769 19.7122C3.30312 18.7277 2.75 17.3923 2.75 15.9999C2.75 14.6075 3.30312 13.2722 4.28769 12.2876C5.27225 11.3031 6.60761 10.7499 8 10.7499H9.25V12.2499H8C3.03742 12.4256 3.0375 19.5746 8.00006 19.7499H18.25V21.2499H8ZM9.25 13.7499V18.2499H8C7.40675 18.2446 6.8396 18.0052 6.42198 17.5838C6.00436 17.1625 5.77006 16.5932 5.77006 15.9999C5.77007 15.4066 6.00439 14.8374 6.42202 14.416C6.83966 13.9946 7.40681 13.7552 8.00006 13.7499H9.25ZM18.25 22.7499V23.9999C18.25 24.5967 18.0129 25.169 17.591 25.5909C17.169 26.0129 16.5967 26.2499 16 26.2499C15.4033 26.2499 14.831 26.0129 14.409 25.5909C13.9871 25.169 13.75 24.5967 13.75 23.9999V22.7499H18.25ZM21.25 23.9999C21.25 25.3923 20.6969 26.7277 19.7123 27.7122C18.7277 28.6968 17.3924 29.2499 16 29.2499C14.6076 29.2499 13.2723 28.6968 12.2877 27.7122C11.3031 26.7277 10.75 25.3923 10.75 23.9999V22.7499H12.25V23.9999C12.4257 28.9625 19.5746 28.9624 19.75 23.9999V13.7499H21.25V23.9999ZM27.7148 19.7148C27.2279 20.2035 26.6488 20.5909 26.0112 20.8544C25.3735 21.1179 24.6899 21.2523 24 21.2499H22.75V19.7499H24C24.9946 19.7499 25.9484 19.3549 26.6517 18.6516C27.3549 17.9483 27.75 16.9945 27.75 15.9999C27.75 15.0054 27.3549 14.0515 26.6517 13.3483C25.9484 12.645 24.9946 12.2499 24 12.2499H13.75V10.7499H24C28.6295 10.7192 31.0081 16.4721 27.7148 19.7148ZM22.75 18.2499V13.7499H24C24.5933 13.7552 25.1604 13.9946 25.578 14.416C25.9956 14.8374 26.2299 15.4067 26.2299 16C26.2299 16.5932 25.9956 17.1625 25.578 17.5839C25.1603 18.0053 24.5932 18.2446 23.9999 18.2499H22.75Z" stroke="#9867FF" stroke-width="0.4" mask="url(#path-1-outside-1_161_1295)"/>
</g>
</g>
</svg>
