<svg width="32" height="32" viewBox="0 0 32 32" fill="none" xmlns="http://www.w3.org/2000/svg">
<g id="triangle 1">
<path id="Vector" d="M9.85609 11.5841L3.68009 17.7601C3.29609 18.1441 3.29609 18.7521 3.68009 19.1041L3.84009 19.2641C4.22409 19.6481 4.83209 19.6481 5.18409 19.2641L11.3601 13.1201C11.7441 12.7361 12.3521 12.7361 12.7041 13.1201L12.8641 13.2801C13.2481 13.6641 13.2481 14.2721 12.8641 14.6241L8.92809 18.5601C8.54409 18.9441 8.54409 19.5521 8.92809 19.9041L9.08809 20.0641C9.47209 20.4481 10.0801 20.4481 10.4321 20.0641L14.3681 16.1281C14.7521 15.7441 15.3601 15.7441 15.7121 16.1281L15.8721 16.2881C16.2561 16.6721 16.2561 17.2801 15.8721 17.6321L6.68809 26.8161C6.30409 27.2001 6.30409 27.8081 6.68809 28.1601L6.84809 28.3201C7.23209 28.7041 7.84009 28.7041 8.19209 28.3201L17.3761 19.1361C17.7601 18.7521 18.3681 18.7521 18.7201 19.1361L18.8801 19.2961C19.2641 19.6801 19.2641 20.2881 18.8801 20.6401L12.7361 26.8161C12.3521 27.2001 12.3521 27.8081 12.7361 28.1601L12.8961 28.3201C13.2801 28.7041 13.8881 28.7041 14.2401 28.3201L20.4161 22.1441C20.8001 21.7601 21.4081 21.7601 21.7601 22.1441L26.9761 27.3601C27.5841 27.9681 28.6081 27.5521 28.6081 26.6881V4.35209C28.6081 3.80809 28.1921 3.39209 27.6481 3.39209H5.31209C4.44809 3.39209 4.03209 4.41609 4.64009 5.02409L9.85609 10.2401C10.2081 10.6241 10.2081 11.2321 9.85609 11.5841ZM14.2081 10.2401L15.1041 9.34409C15.4881 8.96009 15.4881 8.35209 15.1041 8.00009L14.9441 7.84009C14.5601 7.45609 13.9521 7.45609 13.6001 7.84009L12.7041 8.73609C12.3201 9.12009 11.7121 9.12009 11.3601 8.73609L9.79209 7.16809C9.18409 6.56009 9.60009 5.53609 10.4641 5.53609H25.5041C26.0481 5.53609 26.4641 5.95209 26.4641 6.49609V21.5361C26.4641 22.4001 25.4401 22.8161 24.8321 22.2081L23.2641 20.6401C22.8801 20.2561 22.8801 19.6481 23.2641 19.2961L24.1601 18.4001C24.5441 18.0161 24.5441 17.4081 24.1601 17.0561L24.0001 16.8961C23.6161 16.5121 23.0081 16.5121 22.6561 16.8961L21.7601 17.7921C21.3761 18.1761 20.7681 18.1761 20.4161 17.7921L20.2561 17.6321C19.8721 17.2481 19.8721 16.6401 20.2561 16.2881L24.1601 12.3841C24.5441 12.0001 24.5441 11.3921 24.1601 11.0401L24.0001 10.8801C23.6161 10.4961 23.0081 10.4961 22.6561 10.8801L18.7521 14.7521C18.3681 15.1361 17.7601 15.1361 17.4081 14.7521L17.2481 14.5921C16.8641 14.2081 16.8641 13.6001 17.2481 13.2481L19.6481 10.8481C20.0321 10.4641 20.0321 9.85609 19.6481 9.50409L19.4881 9.34409C19.1041 8.96009 18.4961 8.96009 18.1441 9.34409L15.7441 11.7441C15.3601 12.1281 14.7521 12.1281 14.4001 11.7441L14.2401 11.5841C13.8561 11.2321 13.8561 10.6241 14.2081 10.2401Z" fill="#7AAEFC"/>
</g>
</svg>
