<svg width="147" height="40" viewBox="0 0 147 40" fill="none" xmlns="http://www.w3.org/2000/svg">
<path d="M0 30.5711V1.28764H19.8929V5.48287H5.19308V13.5826H18.9296V17.8193H5.19308V26.3344H19.8929V30.5711H0Z" fill="url(#paint0_linear_349_174)"/>
<path d="M24.4882 30.5711V0H29.7231V30.5711H24.4882Z" fill="url(#paint1_linear_349_174)"/>
<path d="M34.9892 40L33.7747 35.8879C35.0869 35.6109 36.1897 35.2925 37.0832 34.9325C37.9766 34.5725 38.7165 34.1018 39.3028 33.5202C39.8891 32.9387 40.3777 32.1911 40.7686 31.2773L41.8156 28.8266L41.6899 30.8619L32.4764 9.59502H38.0464L44.6634 25.9605H43.4489L50.1078 9.59502H55.3846L45.7523 31.7342C45.1101 33.2295 44.4121 34.4618 43.6583 35.4309C42.9045 36.4278 42.0948 37.217 41.2293 37.7985C40.3638 38.4078 39.4145 38.8785 38.3814 39.2108C37.3484 39.5431 36.2177 39.8062 34.9892 40Z" fill="url(#paint2_linear_349_174)"/>
<path d="M65.2767 30.9865C63.4619 30.9865 61.7868 30.7788 60.2512 30.3634C58.7435 29.9204 57.4731 29.3112 56.4401 28.5358L57.9059 25.0467C58.9668 25.7667 60.1395 26.3205 61.4238 26.7082C62.7081 27.0959 64.0064 27.2897 65.3186 27.2897C66.7146 27.2897 67.7476 27.0543 68.4177 26.5836C69.1157 26.1128 69.4647 25.4759 69.4647 24.6729C69.4647 24.036 69.2413 23.5376 68.7946 23.1776C68.3758 22.7899 67.6918 22.4991 66.7425 22.3053L62.5545 21.5161C60.7677 21.1284 59.3996 20.4638 58.4503 19.5223C57.529 18.5808 57.0683 17.3486 57.0683 15.8255C57.0683 14.5241 57.4173 13.3749 58.1153 12.378C58.8412 11.3811 59.8603 10.6057 61.1725 10.0519C62.5127 9.4704 64.0762 9.17965 65.863 9.17965C67.4266 9.17965 68.8923 9.38733 70.2604 9.8027C71.6564 10.2181 72.829 10.8411 73.7783 11.6719L72.2706 15.0363C71.4051 14.3441 70.414 13.8041 69.2972 13.4164C68.1804 13.0287 67.0915 12.8349 66.0306 12.8349C64.5787 12.8349 63.5178 13.098 62.8477 13.6241C62.1776 14.1225 61.8426 14.7733 61.8426 15.5763C61.8426 16.1855 62.038 16.6978 62.4289 17.1132C62.8477 17.5009 63.4899 17.7916 64.3554 17.9855L68.5434 18.7747C70.414 19.1346 71.8239 19.7715 72.7732 20.6854C73.7504 21.5715 74.239 22.7899 74.239 24.3406C74.239 25.7252 73.8621 26.9159 73.1082 27.9128C72.3544 28.9097 71.3074 29.6712 69.9673 30.1973C68.6271 30.7234 67.0636 30.9865 65.2767 30.9865Z" fill="url(#paint3_linear_349_174)"/>
<path d="M78.7191 30.5711V9.59502H83.9541V30.5711H78.7191ZM78.426 5.64901V0.581516H84.2473V5.64901H78.426Z" fill="url(#paint4_linear_349_174)"/>
<path d="M97.261 30.9865C94.6645 30.9865 92.7241 30.2804 91.4398 28.8681C90.1555 27.4559 89.5133 25.296 89.5133 22.3884V9.59502H94.7483V22.3468C94.7483 23.8975 95.0693 25.0467 95.7115 25.7944C96.3537 26.5144 97.3308 26.8744 98.6431 26.8744C100.123 26.8744 101.323 26.3759 102.245 25.379C103.194 24.3821 103.669 23.0668 103.669 21.433V9.59502H108.904V30.5711H103.794V26.2928H104.381C103.766 27.7882 102.831 28.9512 101.575 29.7819C100.346 30.585 98.9083 30.9865 97.261 30.9865Z" fill="url(#paint5_linear_349_174)"/>
<path d="M114.587 30.5711V14.8287C114.587 13.9702 114.559 13.098 114.503 12.2118C114.447 11.3257 114.363 10.4534 114.252 9.59502H119.319L119.738 13.7487H119.235C119.822 12.3088 120.715 11.1873 121.916 10.3842C123.144 9.58117 124.596 9.17965 126.271 9.17965C127.946 9.17965 129.328 9.58117 130.417 10.3842C131.534 11.1596 132.316 12.378 132.763 14.0395H132.093C132.679 12.5441 133.642 11.3673 134.982 10.5088C136.322 9.62271 137.858 9.17965 139.589 9.17965C141.962 9.17965 143.735 9.87193 144.908 11.2565C146.08 12.6411 146.667 14.801 146.667 17.7362V30.5711H141.432V17.9439C141.432 16.2825 141.153 15.0917 140.594 14.3718C140.036 13.6241 139.142 13.2503 137.914 13.2503C136.462 13.2503 135.317 13.7625 134.48 14.7871C133.642 15.784 133.223 17.1409 133.223 18.8577V30.5711H127.988V17.9439C127.988 16.2825 127.709 15.0917 127.151 14.3718C126.592 13.6241 125.699 13.2503 124.47 13.2503C123.019 13.2503 121.874 13.7625 121.036 14.7871C120.227 15.784 119.822 17.1409 119.822 18.8577V30.5711H114.587Z" fill="url(#paint6_linear_349_174)"/>
<defs>
<linearGradient id="paint0_linear_349_174" x1="-10" y1="-2.08736e-06" x2="60.0422" y2="100.565" gradientUnits="userSpaceOnUse">
<stop stop-color="#d258f5"/>
<stop offset="0.531732" stop-color="#994ae6"/>
<stop offset="1" stop-color="#433dd9"/>
</linearGradient>
<linearGradient id="paint1_linear_349_174" x1="-10" y1="-2.08736e-06" x2="60.0422" y2="100.565" gradientUnits="userSpaceOnUse">
<stop stop-color="#d258f5"/>
<stop offset="0.531732" stop-color="#994ae6"/>
<stop offset="1" stop-color="#433dd9"/>
</linearGradient>
<linearGradient id="paint2_linear_349_174" x1="-10" y1="-2.08736e-06" x2="60.0422" y2="100.565" gradientUnits="userSpaceOnUse">
<stop stop-color="#d258f5"/>
<stop offset="0.531732" stop-color="#994ae6"/>
<stop offset="1" stop-color="#433dd9"/>
</linearGradient>
<linearGradient id="paint3_linear_349_174" x1="-10" y1="-2.08736e-06" x2="60.0422" y2="100.565" gradientUnits="userSpaceOnUse">
<stop stop-color="#d258f5"/>
<stop offset="0.531732" stop-color="#994ae6"/>
<stop offset="1" stop-color="#433dd9"/>
</linearGradient>
<linearGradient id="paint4_linear_349_174" x1="-10" y1="-2.08736e-06" x2="60.0422" y2="100.565" gradientUnits="userSpaceOnUse">
<stop stop-color="#d258f5"/>
<stop offset="0.531732" stop-color="#994ae6"/>
<stop offset="1" stop-color="#433dd9"/>
</linearGradient>
<linearGradient id="paint5_linear_349_174" x1="-10" y1="-2.08736e-06" x2="60.0422" y2="100.565" gradientUnits="userSpaceOnUse">
<stop stop-color="#d258f5"/>
<stop offset="0.531732" stop-color="#994ae6"/>
<stop offset="1" stop-color="#433dd9"/>
</linearGradient>
<linearGradient id="paint6_linear_349_174" x1="-10" y1="-2.08736e-06" x2="60.0422" y2="100.565" gradientUnits="userSpaceOnUse">
<stop stop-color="#d258f5"/>
<stop offset="0.531732" stop-color="#994ae6"/>
<stop offset="1" stop-color="#433dd9"/>
</linearGradient>
</defs>
</svg>

