<svg width="32" height="32" viewBox="0 0 32 32" fill="none" xmlns="http://www.w3.org/2000/svg">
<g id="Instagram">
<path id="Subtract" d="M12.6712 16C12.6712 14.1591 14.164 12.6664 16.006 12.6664C17.848 12.6664 19.3416 14.1591 19.3416 16C19.3416 17.8409 17.848 19.3336 16.006 19.3336C14.164 19.3336 12.6712 17.8409 12.6712 16ZM10.868 16C10.868 18.836 13.1683 21.1349 16.006 21.1349C18.8437 21.1349 21.144 18.836 21.144 16C21.144 13.164 18.8437 10.8651 16.006 10.8651C13.1683 10.8651 10.868 13.164 10.868 16ZM20.1466 10.6615C20.1465 10.8989 20.2169 11.1309 20.3487 11.3283C20.4806 11.5257 20.6681 11.6796 20.8874 11.7705C21.1068 11.8614 21.3482 11.8852 21.5811 11.839C21.8141 11.7928 22.0281 11.6786 22.1961 11.5109C22.3641 11.3431 22.4785 11.1293 22.5249 10.8966C22.5713 10.6638 22.5477 10.4225 22.4569 10.2032C22.3661 9.98392 22.2123 9.79644 22.0148 9.6645C21.8174 9.53257 21.5853 9.4621 21.3478 9.462H21.3474C21.029 9.46215 20.7238 9.58856 20.4987 9.81347C20.2735 10.0384 20.1469 10.3434 20.1466 10.6615ZM11.9636 24.1398C10.988 24.0954 10.4578 23.933 10.1054 23.7958C9.63826 23.614 9.30494 23.3975 8.95449 23.0478C8.60404 22.698 8.38711 22.3652 8.20604 21.8983C8.06868 21.5463 7.90618 21.0162 7.86184 20.0413C7.81333 18.9872 7.80364 18.6706 7.80364 16.0001C7.80364 13.3296 7.81413 13.0138 7.86184 11.9589C7.90626 10.9839 8.06996 10.4549 8.20604 10.1018C8.38791 9.63496 8.60452 9.30184 8.95449 8.9516C9.30446 8.60136 9.63746 8.38456 10.1054 8.2036C10.4576 8.06632 10.988 7.90392 11.9636 7.8596C13.0183 7.81112 13.3351 7.80144 16.006 7.80144C18.6769 7.80144 18.994 7.81192 20.0496 7.8596C21.0252 7.904 21.5545 8.0676 21.9078 8.2036C22.3749 8.38456 22.7083 8.60184 23.0587 8.9516C23.4092 9.30136 23.6253 9.63496 23.8072 10.1018C23.9445 10.4538 24.107 10.9839 24.1514 11.9589C24.1999 13.0138 24.2096 13.3296 24.2096 16.0001C24.2096 18.6706 24.1999 18.9863 24.1514 20.0413C24.1069 21.0162 23.9436 21.5462 23.8072 21.8983C23.6253 22.3652 23.4087 22.6983 23.0587 23.0478C22.7087 23.3972 22.3749 23.614 21.9078 23.7958C21.5556 23.933 21.0252 24.0954 20.0496 24.1398C18.9949 24.1882 18.6781 24.1979 16.006 24.1979C13.3339 24.1979 13.018 24.1882 11.9636 24.1398ZM11.8807 6.06056C10.8155 6.10904 10.0877 6.27784 9.45199 6.52504C8.79368 6.78032 8.23638 7.1228 7.67949 7.67848C7.12259 8.23416 6.78079 8.792 6.52536 9.44992C6.27801 10.0856 6.10911 10.8126 6.0606 11.8772C6.01129 12.9434 6 13.2843 6 16C6 18.7157 6.01129 19.0566 6.0606 20.1228C6.10911 21.1874 6.27801 21.9144 6.52536 22.5501C6.78079 23.2076 7.12267 23.7661 7.67949 24.3215C8.2363 24.877 8.79368 25.219 9.45199 25.475C10.0889 25.7222 10.8155 25.891 11.8807 25.9394C12.9482 25.9879 13.2887 26 16.006 26C18.7233 26 19.0644 25.9887 20.1313 25.9394C21.1966 25.891 21.9239 25.7222 22.56 25.475C23.2179 25.219 23.7756 24.8772 24.3325 24.3215C24.8894 23.7658 25.2305 23.2076 25.4866 22.5501C25.734 21.9144 25.9037 21.1874 25.9514 20.1228C25.9999 19.0558 26.0112 18.7157 26.0112 16C26.0112 13.2843 25.9999 12.9434 25.9514 11.8772C25.9029 10.8126 25.734 10.0852 25.4866 9.44992C25.2305 8.7924 24.8885 8.23504 24.3325 7.67848C23.7765 7.12192 23.2179 6.78032 22.5608 6.52504C21.924 6.27784 21.1965 6.10824 20.1321 6.06056C19.0652 6.01208 18.7241 6 16.0068 6C13.2895 6 12.9482 6.01128 11.8807 6.06056Z" fill="white"/>
</g>
</svg>
