<svg width="35" height="32" viewBox="0 0 35 32" fill="none" xmlns="http://www.w3.org/2000/svg">
  <defs>
    <linearGradient id="gradient" x1="0%" y1="0%" x2="100%" y2="0%">
      <stop offset="0%" style="stop-color:#d258f5" />
      <stop offset="50%" style="stop-color:#994ae6" />
      <stop offset="100%" style="stop-color:#433dd9" />
    </linearGradient>
  </defs>
  <path id="icon 6" d="M27.7272 0H7.36354C5.4354 0.00230961 3.5869 0.769283 2.2235 2.13268C0.860102 3.49608 0.0931299 5.34459 0.0908203 7.27273L0.0908203 24.7273C0.0931299 26.6554 0.860102 28.5039 2.2235 29.8673C3.5869 31.2307 5.4354 31.9977 7.36354 32H27.7272C29.6553 31.9977 31.5038 31.2307 32.8672 29.8673C34.2306 28.5039 34.9976 26.6554 34.9999 24.7273V7.27273C34.9976 5.34459 34.2306 3.49608 32.8672 2.13268C31.5038 0.769283 29.6553 0.00230961 27.7272 0ZM7.36354 2.90909H27.7272C28.5981 2.9108 29.4486 3.17311 30.1693 3.66226C30.8899 4.15141 31.4477 4.84501 31.7708 5.65382L20.6319 16.7942C19.8122 17.6106 18.7023 18.069 17.5453 18.069C16.3884 18.069 15.2785 17.6106 14.4588 16.7942L3.31991 5.65382C3.64303 4.84501 4.2008 4.15141 4.92143 3.66226C5.64206 3.17311 6.49258 2.9108 7.36354 2.90909ZM27.7272 29.0909H7.36354C6.20623 29.0909 5.09633 28.6312 4.27799 27.8128C3.45965 26.9945 2.99991 25.8846 2.99991 24.7273V9.45455L12.4021 18.8509C13.7674 20.2127 15.617 20.9775 17.5453 20.9775C19.4737 20.9775 21.3233 20.2127 22.6886 18.8509L32.0908 9.45455V24.7273C32.0908 25.8846 31.6311 26.9945 30.8127 27.8128C29.9944 28.6312 28.8845 29.0909 27.7272 29.0909Z" fill="url(#gradient)"/>
</svg>
