<svg width="91" height="96" xmlns="http://www.w3.org/2000/svg">

 <g>
  <title>background</title>
  <rect fill="none" id="canvas_background" height="402" width="582" y="-1" x="-1"/>
 </g>
 <g>
  <title>Layer 1</title>
  <g id="Frame 35">
   <g id="Vector">
    <path id="svg_1" fill="white" d="m41.189,81.2007l-0.8174,4.8813l-0.1715,-0.0286c0.2565,-0.5112 0.6065,-0.879 1.0499,-1.1034c0.433,-0.2261 0.9248,-0.2933 1.4755,-0.2016c0.5714,0.0952 1.0528,0.3459 1.444,0.752c0.3791,0.4147 0.6421,0.9485 0.7891,1.6015c0.1469,0.653 0.151,1.3941 0.0122,2.2232c-0.1406,0.8394 -0.3807,1.5398 -0.7204,2.1011c-0.3517,0.5699 -0.7735,0.9843 -1.2655,1.2432c-0.5023,0.2572 -1.0443,0.3374 -1.6261,0.2404c-0.5507,-0.0917 -0.994,-0.3147 -1.3298,-0.669c-0.3462,-0.3559 -0.5582,-0.8121 -0.6359,-1.3683l0.1714,0.0286l-0.8539,5.0989l-1.9325,-0.322l0.8539,-5.0989l0.1715,0.0285c-0.2548,0.5009 -0.5987,0.8644 -1.0317,1.0905c-0.4434,0.2244 -0.9404,0.2907 -1.4911,0.199c-0.5818,-0.097 -1.0632,-0.3476 -1.444,-0.752c-0.3912,-0.4061 -0.6551,-0.9347 -0.7917,-1.586c-0.1487,-0.6427 -0.1527,-1.3837 -0.0121,-2.2232c0.1388,-0.8291 0.3841,-1.5285 0.7358,-2.0985c0.3414,-0.5716 0.7641,-0.9912 1.2682,-1.2588c0.4919,-0.2589 1.0287,-0.3399 1.6106,-0.2429c0.5402,0.09 0.9835,0.313 1.3297,0.669c0.3358,0.3542 0.5469,0.8155 0.6333,1.3838l-0.1714,-0.0285l0.8174,-4.8813l1.9325,0.322zm0.7307,4.9155c-0.4779,-0.0796 -0.8884,0.0757 -1.2314,0.466c-0.3534,0.3885 -0.6039,1.0232 -0.7514,1.9041c-0.1458,0.8706 -0.1149,1.5469 0.0928,2.0289c0.2058,0.4924 0.5426,0.7775 1.0101,0.8554c0.4779,0.0796 0.8945,-0.08 1.2496,-0.4789c0.3535,-0.3885 0.6031,-1.0181 0.7488,-1.8886c0.1476,-0.8809 0.1175,-1.5624 -0.0901,-2.0444c-0.2076,-0.482 -0.5504,-0.7629 -1.0284,-0.8425zm-4.9559,-0.8258c-0.4779,-0.0796 -0.8936,0.0748 -1.247,0.4634c-0.3534,0.3885 -0.6039,1.0232 -0.7514,1.9041c-0.1458,0.8706 -0.1097,1.5477 0.1083,2.0315c0.2059,0.4924 0.5426,0.7775 1.0102,0.8554c0.4779,0.0797 0.8944,-0.08 1.2496,-0.4789c0.343,-0.3902 0.5874,-1.0206 0.7332,-1.8912c0.1475,-0.8809 0.1227,-1.5615 -0.0746,-2.0418c-0.2076,-0.482 -0.5504,-0.7628 -1.0283,-0.8425z"/>
    <path id="svg_2" fill="white" d="m29.1612,81.0089c0.735,0.3663 1.2957,0.8337 1.6821,1.4022c0.3864,0.5685 0.5915,1.2052 0.6152,1.91c0.0143,0.7001 -0.1692,1.4309 -0.5506,2.1922c-0.3814,0.7613 -0.8547,1.3418 -1.4199,1.7413c-0.5793,0.4043 -1.2129,0.623 -1.9006,0.656c-0.6878,0.0331 -1.3992,-0.1336 -2.1342,-0.4999c-0.735,-0.3663 -1.2957,-0.8337 -1.6821,-1.4022c-0.3959,-0.5732 -0.6009,-1.2099 -0.6152,-1.91c-0.0285,-0.6955 0.148,-1.4239 0.5294,-2.1852c0.3814,-0.7613 0.8617,-1.3441 1.4411,-1.7484c0.5699,-0.4089 1.2034,-0.6276 1.9006,-0.6559c0.6878,-0.0331 1.3992,0.1335 2.1342,0.4999zm-0.678,1.3535c-0.556,-0.2772 -1.0954,-0.3052 -1.6183,-0.0842c-0.5275,0.2303 -0.989,0.7403 -1.3846,1.5298c-0.3955,0.7896 -0.5249,1.4592 -0.3881,2.009c0.1367,0.5497 0.4831,0.9631 1.0391,1.2402c0.5559,0.2771 1.0953,0.3052 1.6181,0.0842c0.5229,-0.221 0.9821,-0.7262 1.3776,-1.5158c0.3955,-0.7895 0.5272,-1.4638 0.3952,-2.023c-0.1368,-0.5497 -0.4831,-0.9631 -1.039,-1.2402z"/>
    <path id="svg_3" fill="white" d="m26.1632,75.845l-6.1474,7.0951c-0.2135,0.2465 -0.4225,0.5038 -0.627,0.7719c-0.2045,0.2681 -0.3975,0.5392 -0.5792,0.8131l-1.4465,-1.247l0.9637,-1.3774l0.1315,0.1134c-0.4846,0.3183 -1.0249,0.4357 -1.621,0.3524c-0.611,-0.0823 -1.1715,-0.3433 -1.6815,-0.783c-0.534,-0.4603 -0.89,-0.9894 -1.0681,-1.5873c-0.185,-0.59 -0.1858,-1.2157 -0.0026,-1.8771c0.1763,-0.6535 0.5469,-1.3061 1.1117,-1.958c0.5648,-0.6519 1.162,-1.1162 1.7915,-1.3928c0.6296,-0.2767 1.2538,-0.3705 1.8727,-0.2813c0.612,0.0971 1.185,0.3758 1.719,0.8361c0.5021,0.4328 0.8376,0.9374 1.0066,1.5136c0.1691,0.5762 0.1383,1.126 -0.0924,1.6493l-0.1315,-0.1134l3.3062,-3.8158l1.4943,1.2882zm-6.1567,0.9836c-0.4782,-0.4123 -1.0019,-0.5791 -1.5712,-0.5005c-0.5762,0.0866 -1.1536,0.4637 -1.7322,1.1315c-0.5786,0.6678 -0.8656,1.2883 -0.8611,1.8616c0.0045,0.5733 0.2458,1.066 0.724,1.4783c0.4703,0.4053 0.99,0.5687 1.5593,0.4901c0.5694,-0.0786 1.1433,-0.4518 1.7219,-1.1196c0.5786,-0.6677 0.869,-1.2923 0.8714,-1.8735c-0.0045,-0.5733 -0.2419,-1.0626 -0.7121,-1.4679z"/>
    <path id="svg_4" fill="white" d="m16.9031,72.2866l-6.6036,4.4677l-0.92243,-1.3565l2.40583,-4.9414l-5.49233,0.4022l-0.92241,-1.3566l6.60364,-4.4677l0.9757,1.4348l-4.773,3.2292l-0.20399,-0.3001l5.13749,-0.3906l0.5144,0.7566l-2.2638,4.6167l-0.204,-0.3l4.7729,-3.2291l0.9756,1.4348z"/>
    <path id="svg_5" fill="white" d="m10.3635,60.6448c0.2271,0.6555 0.2722,1.2847 0.1356,1.8876c-0.1466,0.6064 -0.4655,1.1498 -0.95658,1.6303c-0.4911,0.4805 -1.14486,0.8615 -1.96128,1.1428c-0.81641,0.2814 -1.56151,0.3825 -2.2353,0.3035c-0.68373,-0.0757 -1.26592,-0.3086 -1.74655,-0.6988c-0.4906,-0.3867 -0.84941,-0.9079 -1.07644,-1.5633c-0.22016,-0.6356 -0.25348,-1.2467 -0.1,-1.8332c0.1401,-0.593 0.44646,-1.0598 0.9191,-1.4006l0.05677,0.1639l-1.63982,0.3817l-0.61917,-1.7877c0.31896,-0.0765 0.64291,-0.1548 0.97182,-0.2348c0.32549,-0.09 0.64255,-0.1881 0.95119,-0.2945l5.66016,-1.9506l0.63981,1.8472l-1.54802,0.5502l-0.06192,-0.1788c0.57277,-0.0195 1.09774,0.1608 1.57495,0.5411c0.47719,0.3803 0.82248,0.8783 1.03568,1.494zm-1.61428,-0.0273c-0.20295,-0.5859 -0.57045,-0.9873 -1.10249,-1.2042c-0.542,-0.2134 -1.23117,-0.176 -2.06749,0.1122c-0.83633,0.2883 -1.39668,0.6815 -1.68105,1.1797c-0.28437,0.4982 -0.32508,1.0403 -0.12213,1.6262c0.20295,0.5859 0.57045,0.9873 1.10249,1.2042c0.53205,0.2168 1.21623,0.1811 2.05256,-0.1071c0.83633,-0.2882 1.40338,-0.6782 1.70114,-1.1699c0.28437,-0.4982 0.32337,-1.0452 0.11697,-1.6411z"/>
    <path id="svg_6" fill="white" d="m8.26555,42.4758c-0.11982,0.8108 -0.39025,1.488 -0.81128,2.0314c-0.42104,0.5435 -0.96356,0.9364 -1.62757,1.1786c-0.66246,0.2318 -1.41576,0.2857 -2.25988,0.1616c-0.84411,-0.1241 -1.54457,-0.3917 -2.10138,-0.8028c-0.56569,-0.4231 -0.97149,-0.9554 -1.21741,-1.5969c-0.24592,-0.6416 -0.30897,-1.3677 -0.18915,-2.1786c0.11981,-0.8108 0.39025,-1.4879 0.81128,-2.0314c0.42258,-0.5539 0.9651,-0.9467 1.62756,-1.1785c0.65358,-0.2438 1.40243,-0.3036 2.24655,-0.1795c0.84411,0.1241 1.54902,0.3977 2.11471,0.8207c0.56723,0.4126 0.97303,0.9449 1.21742,1.5969c0.24592,0.6415 0.30897,1.3677 0.18915,2.1785zm-1.50065,-0.2206c0.09063,-0.6133 -0.05081,-1.1333 -0.42431,-1.56c-0.38392,-0.4281 -1.01358,-0.7066 -1.88895,-0.8353c-0.87539,-0.1287 -1.55359,-0.0426 -2.03462,0.2584c-0.48103,0.301 -0.76687,0.7582 -0.8575,1.3715c-0.09063,0.6133 0.05081,1.1333 0.42432,1.5599c0.3735,0.4267 0.99793,0.7043 1.87331,0.8331c0.87538,0.1287 1.5588,0.0433 2.05026,-0.2562c0.48102,-0.301 0.76685,-0.7581 0.85749,-1.3714z"/>
    <path id="svg_7" fill="white" d="m10.6554,33.4203c-0.484,1.1534 -1.22014,1.9282 -2.20853,2.3242c-0.98432,0.3864 -2.1518,0.2976 -3.50246,-0.2663l-1.25348,-0.5233c-1.38952,-0.5802 -2.37478,-1.3617 -2.95579,-2.3447c-0.581,-0.983 -0.74113,-2.1661 -0.4804,-3.5494l0.51648,-2.9453l1.63581,0.1021l-0.59851,3.304c-0.1046,0.5486 -0.07544,1.0506 0.08751,1.5059c0.15322,0.4512 0.39932,0.8445 0.73828,1.1796c0.33897,0.3352 0.74167,0.6001 1.20807,0.7949l0.7725,0.3225l-0.10372,0.2472c-0.39252,-0.2892 -0.69624,-0.6268 -0.91115,-1.0126c-0.22462,-0.39 -0.3479,-0.8173 -0.36983,-1.2821c-0.02194,-0.4648 0.07081,-0.9444 0.27823,-1.4387c0.2603,-0.6203 0.63382,-1.1022 1.12055,-1.4457c0.48108,-0.3573 1.05063,-0.5581 1.70866,-0.6023c0.64832,-0.0482 1.34658,0.0838 2.09477,0.3962c0.76764,0.3205 1.36818,0.7535 1.80161,1.299c0.4375,0.5357 0.6958,1.1448 0.7749,1.8271c0.0735,0.6685 -0.0444,1.3711 -0.3535,2.1077zm-1.40902,-0.5199c0.25217,-0.601 0.25791,-1.1453 0.01724,-1.6331c-0.24633,-0.5015 -0.75331,-0.9125 -1.52095,-1.233c-0.7482,-0.3124 -1.38781,-0.3801 -1.91884,-0.2031c-0.54075,0.1729 -0.93517,0.5549 -1.18327,1.1462c-0.24809,0.5912 -0.24898,1.1376 -0.00265,1.6391c0.24632,0.5015 0.72901,0.9024 1.44806,1.2026c0.78707,0.3286 1.45098,0.4065 1.99173,0.2336c0.53103,-0.177 0.92059,-0.5611 1.16868,-1.1523z"/>
    <path id="svg_8" fill="white" d="m15.5693,30.2064l-7.50049,-5.6539c-0.26053,-0.1964 -0.5316,-0.3876 -0.81323,-0.5735c-0.28163,-0.186 -0.5654,-0.3604 -0.85133,-0.5232l1.15269,-1.5215l1.44102,0.8689l-0.1048,0.1383c-0.35014,-0.4615 -0.50304,-0.9916 -0.45872,-1.5903c0.04227,-0.6135 0.26663,-1.1885 0.67309,-1.725c0.42551,-0.5617 0.93147,-0.9507 1.51797,-1.1671c0.5781,-0.2228 1.2039,-0.2646 1.8776,-0.1256c0.6652,0.1327 1.3424,0.4588 2.0316,0.9783c0.6891,0.5194 1.1926,1.0834 1.5107,1.6919c0.318,0.6085 0.4527,1.2236 0.404,1.8455c-0.057,0.6155 -0.2983,1.2041 -0.7238,1.7658c-0.4001,0.5281 -0.8828,0.8951 -1.4482,1.1011c-0.5653,0.206 -1.1173,0.2114 -1.656,0.0161l0.1048,-0.1383l4.0339,3.0407l-1.1908,1.5718zm-1.3873,-6.0636c0.3811,-0.5029 0.5137,-1.0352 0.3977,-1.5967c-0.1243,-0.5678 -0.5394,-1.1178 -1.2454,-1.65c-0.7059,-0.5321 -1.3455,-0.7771 -1.9187,-0.7351c-0.5732,0.042 -1.0503,0.3146 -1.43133,0.8175c-0.37471,0.4946 -0.50409,1.0227 -0.38816,1.5842c0.11593,0.5615 0.52689,1.1083 1.23279,1.6404c0.7059,0.5322 1.3497,0.7804 1.9313,0.7447c0.5732,-0.0421 1.0471,-0.3104 1.4218,-0.805z"/>
    <path id="svg_9" fill="white" d="m21.117,18.9608c-0.5422,0.434 -1.1209,0.6885 -1.736,0.7633c-0.6218,0.0666 -1.2421,-0.0498 -1.8612,-0.3491c-0.619,-0.2993 -1.1988,-0.785 -1.7395,-1.4569c-0.5406,-0.672 -0.8872,-1.3377 -1.0395,-1.9971c-0.159,-0.6676 -0.1353,-1.2929 0.071,-1.8757c0.1998,-0.5911 0.5708,-1.1036 1.113,-1.5377c0.5258,-0.4209 1.0913,-0.6581 1.6966,-0.7115c0.607,-0.0683 1.1509,0.0622 1.6318,0.3912l-0.1356,0.1086l-0.9128,-1.4115l1.4788,-1.18379c0.1797,0.27376 0.3628,0.55159 0.5491,0.83359c0.1946,0.2754 0.394,0.5401 0.5984,0.7941l3.7483,4.6586l-1.528,1.2232l-1.0409,-1.2684l0.1479,-0.1184c0.2114,0.5313 0.218,1.0851 0.0198,1.6614c-0.1981,0.5763 -0.5519,1.0683 -1.0612,1.4761zm-0.5181,-1.5253c0.4847,-0.388 0.7397,-0.8684 0.7652,-1.4411c0.0188,-0.581 -0.2487,-1.2156 -0.8026,-1.9039c-0.5538,-0.6884 -1.1137,-1.0822 -1.6798,-1.1814c-0.5661,-0.0992 -1.0915,0.0452 -1.5762,0.4332c-0.4847,0.3881 -0.7397,0.8684 -0.7651,1.4412c-0.0255,0.5727 0.2387,1.2032 0.7926,1.8916c0.5538,0.6883 1.113,1.0895 1.6774,1.2035c0.5661,0.0992 1.0956,-0.0485 1.5885,-0.4431z"/>
    <path id="svg_10" fill="white" d="m27.6778,14.2987l-2.7889,-5.78011l-2.4631,1.18245l-0.6715,-1.39177l6.7059,-3.21927l0.6715,1.39177l-2.4773,1.18929l2.7889,5.78014l-1.7655,0.8475z"/>
    <path id="svg_11" fill="white" d="m32.9384,11.7736l-1.7336,-7.76915l1.9124,-0.42461l0.6798,3.04612l3.5164,-0.78073l-0.6797,-3.04612l1.9125,-0.4246l1.7336,7.76909l-1.9125,0.4247l-0.7243,-3.24616l-3.5165,0.78072l0.7243,3.24614l-1.9124,0.4246z"/>
    <path id="svg_12" fill="white" d="m45.9985,10.1087c-0.8211,-0.0285 -1.5259,-0.22112 -2.1142,-0.57795c-0.5884,-0.35683 -1.0402,-0.85086 -1.3555,-1.48209c-0.3048,-0.63087 -0.4423,-1.37159 -0.4127,-2.22217c0.0296,-0.85057 0.2182,-1.57473 0.5658,-2.17247c0.3585,-0.60788 0.8436,-1.06944 1.4554,-1.38467c0.6117,-0.31523 1.3282,-0.45861 2.1493,-0.43015c0.8212,0.02846 1.5259,0.22111 2.1143,0.57794c0.5988,0.35719 1.0507,0.85122 1.3554,1.48209c0.3157,0.62073 0.4587,1.35638 0.4291,2.20696c-0.0297,0.85057 -0.2237,1.5798 -0.5822,2.18768c-0.3479,0.60824 -0.833,1.0698 -1.4553,1.38466c-0.6118,0.31523 -1.3282,0.45857 -2.1494,0.43017zm0.0527,-1.51215c0.6211,0.02153 1.1234,-0.17659 1.5069,-0.59436c0.3838,-0.42826 0.5911,-1.08344 0.6218,-1.96551c0.0307,-0.88208 -0.1306,-1.54478 -0.4841,-1.98809c-0.3535,-0.44331 -0.8407,-0.67573 -1.4619,-0.69726c-0.6211,-0.02152 -1.1234,0.17659 -1.5068,0.59436c-0.3835,0.41777 -0.5906,1.06769 -0.6213,1.94977c-0.0307,0.88208 0.1304,1.55002 0.4835,2.00383c0.3535,0.44331 0.8408,0.67573 1.4619,0.69726z"/>
    <path id="svg_13" fill="white" d="m51.6768,10.2298l2.2326,-7.64131l1.7142,0.49831l-1.6889,5.7802l-0.455,-0.1323l6.0424,-4.51456l1.5625,0.45422l-2.2326,7.64134l-1.7142,-0.4983l1.6933,-5.79533l0.4702,0.13671l-6.062,4.52532l-1.5625,-0.4543zm6.016,-7.29662c-0.5057,-0.147 -0.9271,-0.35706 -1.2642,-0.63018c-0.3342,-0.2832 -0.5835,-0.61287 -0.7479,-0.989c-0.1615,-0.38621 -0.2359,-0.80732 -0.2234,-1.26334l1.0682,-0.05066c0.0363,0.51401 0.1737,0.92607 0.4123,1.2362c0.2415,0.30004 0.5999,0.51914 1.0752,0.65732c0.4753,0.13818 0.8956,0.14544 1.2609,0.0218c0.3653,-0.12364 0.7118,-0.38955 1.0395,-0.79772l0.8325,0.58676c-0.4098,0.61413 -0.9141,1.0257 -1.5128,1.23471c-0.5856,0.20187 -1.2324,0.1999 -1.9403,-0.00589z"/>
    <path id="svg_14" fill="white" d="m70.6943,20.0181c-0.6078,-0.5515 -1.0281,-1.1602 -1.261,-1.8261c-0.2251,-0.6588 -0.2532,-1.3307 -0.0843,-2.0155c0.1759,-0.6926 0.5545,-1.3575 1.1358,-1.9949c0.5812,-0.6373 1.2021,-1.0682 1.8626,-1.2928c0.6682,-0.2174 1.3382,-0.2416 2.0099,-0.0724c0.6717,0.1691 1.3114,0.5294 1.9191,1.081c0.3896,0.3535 0.7108,0.7586 0.9637,1.2153c0.2676,0.4559 0.4156,0.9027 0.4438,1.3402l-1.3692,0.6113c-0.0332,-0.3852 -0.1397,-0.7447 -0.3196,-1.0784c-0.165,-0.3343 -0.3721,-0.6146 -0.6215,-0.8409c-0.522,-0.4737 -1.0799,-0.6817 -1.6738,-0.624c-0.586,0.0649 -1.1625,0.4082 -1.7296,1.0299c-0.5671,0.6218 -0.8589,1.2306 -0.8754,1.8265c-0.0087,0.6028 0.248,1.1412 0.7701,1.6149c0.2415,0.2192 0.5334,0.3988 0.8756,0.5389c0.35,0.1471 0.7226,0.2225 1.118,0.2262l-0.4702,1.4056c-0.4472,0.0062 -0.9144,-0.0982 -1.4019,-0.3132c-0.4796,-0.208 -0.9103,-0.4852 -1.2921,-0.8316z"/>
    <path id="svg_15" fill="white" d="m73.6591,22.5375l6.5038,-4.6112l2.4624,3.4557c0.5798,0.8136 0.8537,1.5154 0.8217,2.1052c-0.0234,0.5838 -0.3055,1.0675 -0.8465,1.451c-0.4121,0.2922 -0.8532,0.3987 -1.3232,0.3194c-0.47,-0.0793 -0.9011,-0.3215 -1.2932,-0.7267l0.1803,-0.1278c0.3623,0.581 0.5043,1.1249 0.426,1.6316c-0.0783,0.5067 -0.3493,0.9244 -0.813,1.2532c-0.558,0.3956 -1.1528,0.495 -1.7842,0.2981c-0.6314,-0.1969 -1.2278,-0.6893 -1.7893,-1.4772l-2.5448,-3.5713zm2.0535,0.7871l1.364,1.9141c0.2685,0.3769 0.5502,0.609 0.8451,0.6964c0.3011,0.0959 0.6018,0.0374 0.9023,-0.1757c0.3005,-0.213 0.4548,-0.4771 0.4629,-0.7922c0.0142,-0.3066 -0.113,-0.6483 -0.3815,-1.0251l-1.364,-1.9141l-1.8288,1.2966zm2.8205,-1.9997l1.2633,1.7728c0.2441,0.3426 0.5062,0.5563 0.7865,0.6413c0.2888,0.0788 0.5705,0.0208 0.8453,-0.174c0.2747,-0.1948 0.418,-0.4381 0.4297,-0.73c0.0117,-0.2919 -0.1045,-0.6091 -0.3487,-0.9517l-1.2632,-1.7728l-1.7129,1.2144z"/>
    <path id="svg_16" fill="white" d="m78.3352,29.0029l2.4058,0.3281c0.4113,0.0589 0.7724,0.1896 1.0832,0.3918c0.3245,0.208 0.5506,0.4676 0.6785,0.7787l0.1318,0.3209l-0.1668,0.0511c-0.3555,-0.8653 -0.4391,-1.609 -0.2507,-2.231c0.1884,-0.6221 0.6481,-1.0826 1.3792,-1.3814c0.7212,-0.2948 1.3747,-0.2837 1.9603,0.0333c0.5993,0.3228 1.0907,0.9508 1.4742,1.8842l1.5039,3.6605l-7.3834,3.0182l-0.683,-1.6626l2.6024,-1.0638l-0.3415,-0.8313c-0.1238,-0.3014 -0.3165,-0.5349 -0.5781,-0.7005c-0.2575,-0.1559 -0.5499,-0.2578 -0.8769,-0.3058l-2.1061,-0.2633l-0.8328,-2.0271zm5.2427,1.9959l0.677,1.648l2.4124,-0.9861l-0.6771,-1.648c-0.2037,-0.4959 -0.4647,-0.8263 -0.783,-0.9915c-0.3143,-0.1554 -0.6566,-0.1574 -1.027,-0.006c-0.3899,0.1594 -0.6421,0.4044 -0.7567,0.7352c-0.1008,0.3364 -0.0494,0.7526 0.1544,1.2484z"/>
    <path id="svg_17" fill="white" d="m82.0364,40.3934c-0.1234,-0.7038 -0.1566,-1.3807 -0.0994,-2.0306c0.0589,-0.6397 0.2077,-1.1936 0.4464,-1.6619l1.3715,0.3206c-0.213,0.4319 -0.3476,0.9141 -0.404,1.4466c-0.0545,0.5428 -0.0318,1.0989 0.068,1.6681c0.1162,0.6624 0.2888,1.1283 0.5178,1.3977c0.2412,0.2779 0.5382,0.3861 0.891,0.3245c0.3321,-0.0579 0.5602,-0.2204 0.6845,-0.4874c0.1347,-0.2688 0.1611,-0.6361 0.0795,-1.1019l-0.3567,-2.0338l1.3385,-0.2335l0.324,1.8475c0.0744,0.4243 0.2146,0.7359 0.4206,0.9346c0.2059,0.1987 0.4594,0.2718 0.7603,0.2193c0.3216,-0.0561 0.5513,-0.2402 0.6891,-0.5522c0.1396,-0.3017 0.1549,-0.7631 0.046,-1.3841c-0.0944,-0.5382 -0.248,-1.018 -0.461,-1.4396c-0.2025,-0.4233 -0.4628,-0.8099 -0.7808,-1.1597l1.1214,-0.7397c0.3754,0.3718 0.6935,0.8443 0.9544,1.4175c0.2627,0.5835 0.4567,1.2323 0.582,1.9465c0.1833,1.0453 0.132,1.881 -0.1539,2.5069c-0.2859,0.6259 -0.7817,1.0004 -1.4872,1.1235c-0.4773,0.0833 -0.9162,-0.0108 -1.3167,-0.2823c-0.3987,-0.2611 -0.6877,-0.6587 -0.8669,-1.1928l0.2179,-0.038c0.071,0.649 -0.032,1.1896 -0.309,1.622c-0.2771,0.4323 -0.7062,0.6992 -1.2873,0.8006c-0.7159,0.1249 -1.342,-0.0912 -1.8781,-0.6483c-0.5362,-0.5572 -0.9068,-1.4205 -1.1119,-2.5901z"/>
    <path id="svg_18" fill="white" d="m83.034,45.2374l7.966,0.4604l-0.1033,1.778l-6.0257,-0.3483l0.0274,-0.472l5.7634,4.864l-0.0941,1.6207l-7.966,-0.4604l0.1033,-1.778l6.0415,0.3492l-0.0283,0.4877l-5.7783,-4.8807l0.0941,-1.6206z"/>
   </g>
  </g>
 </g>
</svg>