<svg width="32" height="32" viewBox="0 0 32 32" fill="none" xmlns="http://www.w3.org/2000/svg">
<g id="Telegram">
<path id="Subtract" fill-rule="evenodd" clip-rule="evenodd" d="M26 16C26 21.5228 21.5228 26 16 26C10.4772 26 6 21.5228 6 16C6 10.4772 10.4772 6 16 6C21.5228 6 26 10.4772 26 16ZM16.9583 12.9315C15.2403 13.6736 10.2868 15.781 10.2868 15.781C9.11289 16.2559 9.80004 16.7011 9.80004 16.7011C9.80004 16.7011 10.8022 17.0573 11.6612 17.3244C12.5202 17.5916 12.9783 17.2948 12.9783 17.2948C12.9783 17.2948 14.9826 15.9294 17.0155 14.475C18.4472 13.4658 18.1036 14.2969 17.76 14.6531C17.0155 15.4248 15.7843 16.6418 14.7535 17.6213C14.2954 18.0368 14.5245 18.393 14.7249 18.5711C15.3079 19.0824 16.6808 20.0123 17.3041 20.4345C17.4768 20.5515 17.592 20.6295 17.6169 20.6488C17.76 20.7675 18.5617 21.3018 19.0485 21.1831C19.5352 21.0643 19.5925 20.3816 19.5925 20.3816C19.5925 20.3816 19.9647 17.9478 20.3083 15.7216C20.372 15.2845 20.4356 14.8566 20.495 14.4576C20.6492 13.4205 20.7744 12.5786 20.7951 12.2785C20.881 11.2694 19.8502 11.6849 19.8502 11.6849C19.8502 11.6849 17.6169 12.6347 16.9583 12.9315Z" fill="white"/>
</g>
</svg>
