<svg width="91" height="96" viewBox="0 0 91 96" fill="none" xmlns="http://www.w3.org/2000/svg">
<path fill-rule="evenodd" clip-rule="evenodd" d="M36.8276 35.9996L58.0005 35.9996L58.0005 57.1568L54.3657 57.1568L54.3657 42.2133L36.5651 59.9996L34.0005 57.4146L51.7819 39.6474L36.8276 39.6474L36.8276 35.9996Z" fill="white"/>
<path d="M41.189 81.2007L40.3716 86.082L40.2001 86.0534C40.4566 85.5422 40.8066 85.1744 41.25 84.95C41.683 84.7239 42.1748 84.6567 42.7255 84.7484C43.2969 84.8436 43.7783 85.0943 44.1695 85.5004C44.5486 85.9151 44.8116 86.4489 44.9586 87.1019C45.1055 87.7549 45.1096 88.496 44.9708 89.3251C44.8302 90.1645 44.5901 90.8649 44.2504 91.4262C43.8987 91.9961 43.4769 92.4105 42.9849 92.6694C42.4826 92.9266 41.9406 93.0068 41.3588 92.9098C40.8081 92.8181 40.3648 92.5951 40.029 92.2408C39.6828 91.8849 39.4708 91.4287 39.3931 90.8725L39.5645 90.9011L38.7106 96L36.7781 95.678L37.632 90.5791L37.8035 90.6076C37.5487 91.1085 37.2048 91.472 36.7718 91.6981C36.3284 91.9225 35.8314 91.9888 35.2807 91.8971C34.6989 91.8001 34.2175 91.5495 33.8367 91.1451C33.4455 90.739 33.1816 90.2104 33.045 89.5591C32.8963 88.9164 32.8923 88.1754 33.0329 87.3359C33.1717 86.5068 33.417 85.8074 33.7687 85.2374C34.1101 84.6658 34.5328 84.2462 35.0369 83.9786C35.5288 83.7197 36.0656 83.6387 36.6475 83.7357C37.1877 83.8257 37.631 84.0487 37.9772 84.4047C38.313 84.7589 38.5241 85.2202 38.6105 85.7885L38.4391 85.76L39.2565 80.8787L41.189 81.2007ZM41.9197 86.1162C41.4418 86.0366 41.0313 86.1919 40.6883 86.5822C40.3349 86.9707 40.0844 87.6054 39.9369 88.4863C39.7911 89.3569 39.822 90.0332 40.0297 90.5152C40.2355 91.0076 40.5723 91.2927 41.0398 91.3706C41.5177 91.4502 41.9343 91.2906 42.2894 90.8917C42.6429 90.5032 42.8925 89.8736 43.0382 89.0031C43.1858 88.1222 43.1557 87.4407 42.9481 86.9587C42.7405 86.4767 42.3977 86.1958 41.9197 86.1162ZM36.9638 85.2904C36.4859 85.2108 36.0702 85.3652 35.7168 85.7538C35.3634 86.1423 35.1129 86.777 34.9654 87.6579C34.8196 88.5285 34.8557 89.2056 35.0737 89.6894C35.2796 90.1818 35.6163 90.4669 36.0839 90.5448C36.5618 90.6245 36.9783 90.4648 37.3335 90.0659C37.6765 89.6757 37.9209 89.0453 38.0667 88.1747C38.2142 87.2938 38.1894 86.6132 37.9921 86.1329C37.7845 85.6509 37.4417 85.3701 36.9638 85.2904Z" fill="white"/>
<path d="M29.1612 81.0089C29.8962 81.3752 30.4569 81.8426 30.8433 82.4111C31.2297 82.9796 31.4348 83.6163 31.4585 84.3211C31.4728 85.0212 31.2893 85.752 30.9079 86.5133C30.5265 87.2746 30.0532 87.8551 29.488 88.2546C28.9087 88.6589 28.2751 88.8776 27.5874 88.9106C26.8996 88.9437 26.1882 88.777 25.4532 88.4107C24.7182 88.0444 24.1575 87.577 23.7711 87.0085C23.3752 86.4353 23.1702 85.7986 23.1559 85.0985C23.1274 84.403 23.3039 83.6746 23.6853 82.9133C24.0667 82.152 24.547 81.5692 25.1264 81.1649C25.6963 80.756 26.3298 80.5373 27.027 80.509C27.7148 80.4759 28.4262 80.6425 29.1612 81.0089ZM28.4832 82.3624C27.9272 82.0852 27.3878 82.0572 26.8649 82.2782C26.3374 82.5085 25.8759 83.0185 25.4803 83.808C25.0848 84.5976 24.9554 85.2672 25.0922 85.817C25.2289 86.3667 25.5753 86.7801 26.1313 87.0572C26.6872 87.3343 27.2266 87.3624 27.7494 87.1414C28.2723 86.9204 28.7315 86.4152 29.127 85.6256C29.5225 84.8361 29.6542 84.1618 29.5222 83.6026C29.3854 83.0529 29.0391 82.6395 28.4832 82.3624Z" fill="white"/>
<path d="M26.1632 75.845L20.0158 82.9401C19.8023 83.1866 19.5933 83.4439 19.3888 83.712C19.1843 83.9801 18.9913 84.2512 18.8096 84.5251L17.3631 83.2781L18.3268 81.9007L18.4583 82.0141C17.9737 82.3324 17.4334 82.4498 16.8373 82.3665C16.2263 82.2842 15.6658 82.0232 15.1558 81.5835C14.6218 81.1232 14.2658 80.5941 14.0877 79.9962C13.9027 79.4062 13.9019 78.7805 14.0851 78.1191C14.2614 77.4656 14.632 76.813 15.1968 76.1611C15.7616 75.5092 16.3588 75.0449 16.9883 74.7683C17.6179 74.4916 18.2421 74.3978 18.861 74.487C19.473 74.5841 20.046 74.8628 20.58 75.3231C21.0821 75.7559 21.4176 76.2605 21.5866 76.8367C21.7557 77.4129 21.7249 77.9627 21.4942 78.486L21.3627 78.3726L24.6689 74.5568L26.1632 75.845ZM20.0065 76.8286C19.5283 76.4163 19.0046 76.2495 18.4353 76.3281C17.8591 76.4147 17.2817 76.7918 16.7031 77.4596C16.1245 78.1274 15.8375 78.7479 15.842 79.3212C15.8465 79.8945 16.0878 80.3872 16.566 80.7995C17.0363 81.2048 17.556 81.3682 18.1253 81.2896C18.6947 81.211 19.2686 80.8378 19.8472 80.17C20.4258 79.5023 20.7162 78.8777 20.7186 78.2965C20.7141 77.7232 20.4767 77.2339 20.0065 76.8286Z" fill="white"/>
<path d="M16.9031 72.2866L10.2995 76.7543L9.37707 75.3978L11.7829 70.4564L6.29057 70.8586L5.36816 69.502L11.9718 65.0343L12.9475 66.4691L8.1745 69.6983L7.97051 69.3982L13.108 69.0076L13.6224 69.7642L11.3586 74.3809L11.1546 74.0809L15.9275 70.8518L16.9031 72.2866Z" fill="white"/>
<path d="M10.3635 60.6448C10.5906 61.3003 10.6357 61.9295 10.4991 62.5324C10.3525 63.1388 10.0336 63.6822 9.54252 64.1627C9.05142 64.6432 8.39766 65.0242 7.58124 65.3055C6.76483 65.5869 6.01973 65.688 5.34594 65.609C4.66221 65.5333 4.08002 65.3004 3.59939 64.9102C3.10879 64.5235 2.74998 64.0023 2.52295 63.3469C2.30279 62.7113 2.26947 62.1002 2.42295 61.5137C2.56305 60.9207 2.86941 60.4539 3.34205 60.1131L3.39882 60.277L1.759 60.6587L1.13983 58.871C1.45879 58.7945 1.78274 58.7162 2.11165 58.6362C2.43714 58.5462 2.7542 58.4481 3.06284 58.3417L8.723 56.3911L9.36281 58.2383L7.81479 58.7885L7.75287 58.6097C8.32564 58.5902 8.85061 58.7705 9.32782 59.1508C9.80501 59.5311 10.1503 60.0291 10.3635 60.6448ZM8.74922 60.6175C8.54627 60.0316 8.17877 59.6302 7.64673 59.4133C7.10473 59.1999 6.41556 59.2373 5.57924 59.5255C4.74291 59.8138 4.18256 60.207 3.89819 60.7052C3.61382 61.2034 3.57311 61.7455 3.77606 62.3314C3.97901 62.9173 4.34651 63.3187 4.87855 63.5356C5.4106 63.7524 6.09478 63.7167 6.93111 63.4285C7.76744 63.1403 8.33449 62.7503 8.63225 62.2586C8.91662 61.7604 8.95562 61.2134 8.74922 60.6175Z" fill="white"/>
<path d="M8.26555 42.4758C8.14573 43.2866 7.8753 43.9638 7.45427 44.5072C7.03323 45.0507 6.49071 45.4436 5.8267 45.6858C5.16424 45.9176 4.41094 45.9715 3.56682 45.8474C2.72271 45.7233 2.02225 45.4557 1.46544 45.0446C0.899748 44.6215 0.493948 44.0892 0.24803 43.4477C0.00211147 42.8061 -0.0609378 42.08 0.0588819 41.2691C0.178694 40.4583 0.449125 39.7812 0.870161 39.2377C1.29274 38.6838 1.83526 38.291 2.49772 38.0592C3.1513 37.8154 3.90015 37.7556 4.74427 37.8797C5.58838 38.0038 6.29329 38.2774 6.85898 38.7004C7.42621 39.113 7.83201 39.6453 8.0764 40.2973C8.32232 40.9388 8.38537 41.665 8.26555 42.4758ZM6.7649 42.2552C6.85553 41.6419 6.71409 41.1219 6.34059 40.6952C5.95667 40.2671 5.32701 39.9886 4.45164 39.8599C3.57625 39.7312 2.89805 39.8173 2.41702 40.1183C1.93599 40.4193 1.65015 40.8765 1.55952 41.4898C1.46889 42.1031 1.61033 42.6231 1.98384 43.0497C2.35734 43.4764 2.98177 43.754 3.85715 43.8828C4.73253 44.0115 5.41595 43.9261 5.90741 43.6266C6.38843 43.3256 6.67426 42.8685 6.7649 42.2552Z" fill="white"/>
<path d="M10.6554 33.4203C10.1714 34.5737 9.43526 35.3485 8.44687 35.7445C7.46255 36.1309 6.29507 36.0421 4.94441 35.4782L3.69093 34.9549C2.30141 34.3747 1.31615 33.5932 0.735144 32.6102C0.154143 31.6272 -0.00599041 30.4441 0.254737 29.0608L0.771216 26.1155L2.40703 26.2176L1.80852 29.5216C1.70392 30.0702 1.73308 30.5722 1.89603 31.0275C2.04925 31.4787 2.29535 31.872 2.63431 32.2071C2.97328 32.5423 3.37598 32.8072 3.84238 33.002L4.61488 33.3245L4.51116 33.5717C4.11864 33.2825 3.81492 32.9449 3.60001 32.5591C3.37539 32.1691 3.25211 31.7418 3.23018 31.277C3.20824 30.8122 3.30099 30.3326 3.50841 29.8383C3.76871 29.218 4.14223 28.7361 4.62896 28.3926C5.11004 28.0353 5.67959 27.8345 6.33762 27.7903C6.98594 27.7421 7.6842 27.8741 8.43239 28.1865C9.20003 28.507 9.80057 28.94 10.234 29.4855C10.6715 30.0212 10.9298 30.6303 11.0089 31.3126C11.0824 31.9811 10.9645 32.6837 10.6554 33.4203ZM9.24638 32.9004C9.49855 32.2994 9.50429 31.7551 9.26362 31.2673C9.01729 30.7658 8.51031 30.3548 7.74267 30.0343C6.99447 29.7219 6.35486 29.6542 5.82383 29.8312C5.28308 30.0041 4.88866 30.3861 4.64056 30.9774C4.39247 31.5686 4.39158 32.115 4.63791 32.6165C4.88423 33.118 5.36692 33.5189 6.08597 33.8191C6.87304 34.1477 7.53695 34.2256 8.0777 34.0527C8.60873 33.8757 8.99829 33.4916 9.24638 32.9004Z" fill="white"/>
<path d="M15.5693 30.2064L8.06881 24.5525C7.80828 24.3561 7.53721 24.1649 7.25558 23.979C6.97395 23.793 6.69018 23.6186 6.40425 23.4558L7.55694 21.9343L8.99796 22.8032L8.89316 22.9415C8.54302 22.48 8.39012 21.9499 8.43444 21.3512C8.47671 20.7377 8.70107 20.1627 9.10753 19.6262C9.53304 19.0645 10.039 18.6755 10.6255 18.4591C11.2036 18.2363 11.8294 18.1945 12.5031 18.3335C13.1683 18.4662 13.8455 18.7923 14.5347 19.3118C15.2238 19.8312 15.7273 20.3952 16.0454 21.0037C16.3634 21.6122 16.4981 22.2273 16.4494 22.8492C16.3924 23.4647 16.1511 24.0533 15.7256 24.615C15.3255 25.1431 14.8428 25.5101 14.2774 25.7161C13.7121 25.9221 13.1601 25.9275 12.6214 25.7322L12.7262 25.5939L16.7601 28.6346L15.5693 30.2064ZM14.182 24.1428C14.5631 23.6399 14.6957 23.1076 14.5797 22.5461C14.4554 21.9783 14.0403 21.4283 13.3343 20.8961C12.6284 20.364 11.9888 20.119 11.4156 20.161C10.8424 20.203 10.3653 20.4756 9.98427 20.9785C9.60956 21.4731 9.48018 22.0012 9.59611 22.5627C9.71204 23.1242 10.123 23.671 10.8289 24.2031C11.5348 24.7353 12.1786 24.9835 12.7602 24.9478C13.3334 24.9057 13.8073 24.6374 14.182 24.1428Z" fill="white"/>
<path d="M21.117 18.9608C20.5748 19.3948 19.9961 19.6493 19.381 19.7241C18.7592 19.7907 18.1389 19.6743 17.5198 19.375C16.9008 19.0757 16.321 18.59 15.7803 17.9181C15.2397 17.2461 14.8931 16.5804 14.7408 15.921C14.5818 15.2534 14.6055 14.6281 14.8118 14.0453C15.0116 13.4542 15.3826 12.9417 15.9248 12.5076C16.4506 12.0867 17.0161 11.8495 17.6214 11.7961C18.2284 11.7278 18.7723 11.8583 19.2532 12.1873L19.1176 12.2959L18.2048 10.8844L19.6836 9.70061C19.8633 9.97437 20.0464 10.2522 20.2327 10.5342C20.4273 10.8096 20.6267 11.0743 20.8311 11.3283L24.5794 15.9869L23.0514 17.2101L22.0105 15.9417L22.1584 15.8233C22.3698 16.3546 22.3764 16.9084 22.1782 17.4847C21.9801 18.061 21.6263 18.553 21.117 18.9608ZM20.5989 17.4355C21.0836 17.0475 21.3386 16.5671 21.3641 15.9944C21.3829 15.4134 21.1154 14.7788 20.5615 14.0905C20.0077 13.4021 19.4478 13.0083 18.8817 12.9091C18.3156 12.8099 17.7902 12.9543 17.3055 13.3423C16.8208 13.7304 16.5658 14.2107 16.5404 14.7835C16.5149 15.3562 16.7791 15.9867 17.333 16.6751C17.8868 17.3634 18.446 17.7646 19.0104 17.8786C19.5765 17.9778 20.106 17.8301 20.5989 17.4355Z" fill="white"/>
<path d="M27.6778 14.2987L24.8889 8.51859L22.4258 9.70104L21.7543 8.30927L28.4602 5.09L29.1317 6.48177L26.6544 7.67106L29.4433 13.4512L27.6778 14.2987Z" fill="white"/>
<path d="M32.9384 11.7736L31.2048 4.00445L33.1172 3.57984L33.797 6.62596L37.3134 5.84523L36.6337 2.79911L38.5462 2.37451L40.2798 10.1436L38.3673 10.5683L37.643 7.32214L34.1265 8.10286L34.8508 11.349L32.9384 11.7736Z" fill="white"/>
<path d="M45.9985 10.1087C45.1774 10.0802 44.4726 9.88758 43.8843 9.53075C43.2959 9.17392 42.8441 8.67989 42.5288 8.04866C42.224 7.41779 42.0865 6.67707 42.1161 5.82649C42.1457 4.97592 42.3343 4.25176 42.6819 3.65402C43.0404 3.04614 43.5255 2.58458 44.1373 2.26935C44.749 1.95412 45.4655 1.81074 46.2866 1.8392C47.1078 1.86766 47.8125 2.06031 48.4009 2.41714C48.9997 2.77433 49.4516 3.26836 49.7563 3.89923C50.072 4.51996 50.215 5.25561 50.1854 6.10619C50.1557 6.95676 49.9617 7.68599 49.6032 8.29387C49.2553 8.90211 48.7702 9.36367 48.1479 9.67853C47.5361 9.99376 46.8197 10.1371 45.9985 10.1087ZM46.0512 8.59655C46.6723 8.61808 47.1746 8.41996 47.5581 8.00219C47.9419 7.57393 48.1492 6.91875 48.1799 6.03668C48.2106 5.1546 48.0493 4.4919 47.6958 4.04859C47.3423 3.60528 46.8551 3.37286 46.2339 3.35133C45.6128 3.32981 45.1105 3.52792 44.7271 3.94569C44.3436 4.36346 44.1365 5.01338 44.1058 5.89546C44.0751 6.77754 44.2362 7.44548 44.5893 7.89929C44.9428 8.3426 45.4301 8.57502 46.0512 8.59655Z" fill="white"/>
<path d="M51.6768 10.2298L53.9094 2.58849L55.6236 3.0868L53.9347 8.867L53.4797 8.7347L59.5221 4.22014L61.0846 4.67436L58.852 12.3157L57.1378 11.8174L58.8311 6.02207L59.3013 6.15878L53.2393 10.6841L51.6768 10.2298ZM57.6928 2.93318C57.1871 2.78618 56.7657 2.57612 56.4286 2.303C56.0944 2.0198 55.8451 1.69013 55.6807 1.314C55.5192 0.927791 55.4448 0.506675 55.4573 0.0506566L56.5255 -1.50693e-06C56.5618 0.514007 56.6992 0.926073 56.9378 1.2362C57.1793 1.53624 57.5377 1.75534 58.013 1.89352C58.4883 2.0317 58.9086 2.03896 59.2739 1.91532C59.6392 1.79168 59.9857 1.52577 60.3134 1.1176L61.1459 1.70436C60.7361 2.31849 60.2318 2.73006 59.6331 2.93907C59.0475 3.14094 58.4007 3.13897 57.6928 2.93318Z" fill="white"/>
<path d="M70.6943 20.0181C70.0865 19.4666 69.6662 18.8579 69.4333 18.192C69.2082 17.5332 69.1801 16.8613 69.349 16.1765C69.5249 15.4839 69.9035 14.819 70.4848 14.1816C71.066 13.5443 71.6869 13.1134 72.3474 12.8888C73.0156 12.6714 73.6856 12.6472 74.3573 12.8164C75.029 12.9855 75.6687 13.3458 76.2764 13.8974C76.666 14.2509 76.9872 14.656 77.2401 15.1127C77.5077 15.5686 77.6557 16.0154 77.6839 16.4529L76.3147 17.0642C76.2815 16.679 76.175 16.3195 75.9951 15.9858C75.8301 15.6515 75.623 15.3712 75.3736 15.1449C74.8516 14.6712 74.2937 14.4632 73.6998 14.5209C73.1138 14.5858 72.5373 14.9291 71.9702 15.5508C71.4031 16.1726 71.1113 16.7814 71.0948 17.3773C71.0861 17.9801 71.3428 18.5185 71.8649 18.9922C72.1064 19.2114 72.3983 19.391 72.7405 19.5311C73.0905 19.6782 73.4631 19.7536 73.8585 19.7573L73.3883 21.1629C72.9411 21.1691 72.4739 21.0647 71.9864 20.8497C71.5068 20.6417 71.0761 20.3645 70.6943 20.0181Z" fill="white"/>
<path d="M73.6591 22.5375L80.1629 17.9263L82.6253 21.382C83.2051 22.1956 83.479 22.8974 83.447 23.4872C83.4236 24.071 83.1415 24.5547 82.6005 24.9382C82.1884 25.2304 81.7473 25.3369 81.2773 25.2576C80.8073 25.1783 80.3762 24.9361 79.9841 24.5309L80.1644 24.4031C80.5267 24.9841 80.6687 25.528 80.5904 26.0347C80.5121 26.5414 80.2411 26.9591 79.7774 27.2879C79.2194 27.6835 78.6246 27.7829 77.9932 27.586C77.3618 27.3891 76.7654 26.8967 76.2039 26.1088L73.6591 22.5375ZM75.7126 23.3246L77.0766 25.2387C77.3451 25.6156 77.6268 25.8477 77.9217 25.9351C78.2228 26.031 78.5235 25.9725 78.824 25.7594C79.1245 25.5464 79.2788 25.2823 79.2869 24.9672C79.3011 24.6606 79.1739 24.3189 78.9054 23.9421L77.5414 22.028L75.7126 23.3246ZM78.5331 21.3249L79.7964 23.0977C80.0405 23.4403 80.3026 23.654 80.5829 23.739C80.8717 23.8178 81.1534 23.7598 81.4282 23.565C81.7029 23.3702 81.8462 23.1269 81.8579 22.835C81.8696 22.5431 81.7534 22.2259 81.5092 21.8833L80.246 20.1105L78.5331 21.3249Z" fill="white"/>
<path d="M78.3352 29.0029L80.741 29.331C81.1523 29.3899 81.5134 29.5206 81.8242 29.7228C82.1487 29.9308 82.3748 30.1904 82.5027 30.5015L82.6345 30.8224L82.4677 30.8735C82.1122 30.0082 82.0286 29.2645 82.217 28.6425C82.4054 28.0204 82.8651 27.5599 83.5962 27.2611C84.3174 26.9663 84.9709 26.9774 85.5565 27.2944C86.1558 27.6172 86.6472 28.2452 87.0307 29.1786L88.5346 32.8391L81.1512 35.8573L80.4682 34.1947L83.0706 33.1309L82.7291 32.2996C82.6053 31.9982 82.4126 31.7647 82.151 31.5991C81.8935 31.4432 81.6011 31.3413 81.2741 31.2933L79.168 31.03L78.3352 29.0029ZM83.5779 30.9988L84.2549 32.6468L86.6673 31.6607L85.9902 30.0127C85.7865 29.5168 85.5255 29.1864 85.2072 29.0212C84.8929 28.8658 84.5506 28.8638 84.1802 29.0152C83.7903 29.1746 83.5381 29.4196 83.4235 29.7504C83.3227 30.0868 83.3741 30.503 83.5779 30.9988Z" fill="white"/>
<path d="M82.0364 40.3934C81.913 39.6896 81.8798 39.0127 81.937 38.3628C81.9959 37.7231 82.1447 37.1692 82.3834 36.7009L83.7549 37.0215C83.5419 37.4534 83.4073 37.9356 83.3509 38.4681C83.2964 39.0109 83.3191 39.567 83.4189 40.1362C83.5351 40.7986 83.7077 41.2645 83.9367 41.5339C84.1779 41.8118 84.4749 41.92 84.8277 41.8584C85.1598 41.8005 85.3879 41.638 85.5122 41.371C85.6469 41.1022 85.6733 40.7349 85.5917 40.2691L85.235 38.2353L86.5735 38.0018L86.8975 39.8493C86.9719 40.2736 87.1121 40.5852 87.3181 40.7839C87.524 40.9826 87.7775 41.0557 88.0784 41.0032C88.4 40.9471 88.6297 40.763 88.7675 40.451C88.9071 40.1493 88.9224 39.6879 88.8135 39.0669C88.7191 38.5287 88.5655 38.0489 88.3525 37.6273C88.15 37.204 87.8897 36.8174 87.5717 36.4676L88.6931 35.7279C89.0685 36.0997 89.3866 36.5722 89.6475 37.1454C89.9102 37.7289 90.1042 38.3777 90.2295 39.0919C90.4128 40.1372 90.3615 40.9729 90.0756 41.5988C89.7897 42.2247 89.2939 42.5992 88.5884 42.7223C88.1111 42.8056 87.6722 42.7115 87.2717 42.44C86.873 42.1789 86.584 41.7813 86.4048 41.2472L86.6227 41.2092C86.6937 41.8582 86.5907 42.3988 86.3137 42.8312C86.0366 43.2635 85.6075 43.5304 85.0264 43.6318C84.3105 43.7567 83.6844 43.5406 83.1483 42.9835C82.6121 42.4263 82.2415 41.563 82.0364 40.3934Z" fill="white"/>
<path d="M83.034 45.2374L91 45.6978L90.8967 47.4758L84.871 47.1275L84.8984 46.6555L90.6618 51.5195L90.5677 53.1402L82.6017 52.6798L82.705 50.9018L88.7465 51.251L88.7182 51.7387L82.9399 46.858L83.034 45.2374Z" fill="white"/>
</svg>
